%TF.GenerationSoftware,KiCad,Pcbnew,9.0.0*%
%TF.CreationDate,2025-03-19T13:45:40+03:00*%
%TF.ProjectId,End_striyel Sens_r Mod_l_,456e64fc-7374-4726-9979-656c2053656e,rev?*%
%TF.SameCoordinates,Original*%
%TF.FileFunction,Copper,L3,Inr*%
%TF.FilePolarity,Positive*%
%FSLAX46Y46*%
G04 Gerber Fmt 4.6, Leading zero omitted, Abs format (unit mm)*
G04 Created by KiCad (PCBNEW 9.0.0) date 2025-03-19 13:45:40*
%MOMM*%
%LPD*%
G01*
G04 APERTURE LIST*
G04 Aperture macros list*
%AMRoundRect*
0 Rectangle with rounded corners*
0 $1 Rounding radius*
0 $2 $3 $4 $5 $6 $7 $8 $9 X,Y pos of 4 corners*
0 Add a 4 corners polygon primitive as box body*
4,1,4,$2,$3,$4,$5,$6,$7,$8,$9,$2,$3,0*
0 Add four circle primitives for the rounded corners*
1,1,$1+$1,$2,$3*
1,1,$1+$1,$4,$5*
1,1,$1+$1,$6,$7*
1,1,$1+$1,$8,$9*
0 Add four rect primitives between the rounded corners*
20,1,$1+$1,$2,$3,$4,$5,0*
20,1,$1+$1,$4,$5,$6,$7,0*
20,1,$1+$1,$6,$7,$8,$9,0*
20,1,$1+$1,$8,$9,$2,$3,0*%
G04 Aperture macros list end*
%TA.AperFunction,ComponentPad*%
%ADD10C,3.600000*%
%TD*%
%TA.AperFunction,HeatsinkPad*%
%ADD11C,0.600000*%
%TD*%
%TA.AperFunction,ComponentPad*%
%ADD12R,1.700000X1.700000*%
%TD*%
%TA.AperFunction,ComponentPad*%
%ADD13O,1.700000X1.700000*%
%TD*%
%TA.AperFunction,ComponentPad*%
%ADD14C,4.000000*%
%TD*%
%TA.AperFunction,ComponentPad*%
%ADD15R,1.600000X1.600000*%
%TD*%
%TA.AperFunction,ComponentPad*%
%ADD16C,1.600000*%
%TD*%
%TA.AperFunction,ComponentPad*%
%ADD17RoundRect,0.249999X-1.550001X0.790001X-1.550001X-0.790001X1.550001X-0.790001X1.550001X0.790001X0*%
%TD*%
%TA.AperFunction,ComponentPad*%
%ADD18O,3.600000X2.080000*%
%TD*%
%TA.AperFunction,ComponentPad*%
%ADD19R,2.030000X1.730000*%
%TD*%
%TA.AperFunction,ComponentPad*%
%ADD20O,2.030000X1.730000*%
%TD*%
%TA.AperFunction,ViaPad*%
%ADD21C,0.600000*%
%TD*%
%TA.AperFunction,ViaPad*%
%ADD22C,1.000000*%
%TD*%
G04 APERTURE END LIST*
D10*
%TO.N,GND*%
%TO.C,H2*%
X131125000Y-109600000D03*
%TD*%
%TO.N,GND*%
%TO.C,H1*%
X131125000Y-68850000D03*
%TD*%
D11*
%TO.N,GND*%
%TO.C,U1*%
X151725000Y-70775000D03*
X151725000Y-71875000D03*
X152275000Y-70225000D03*
X152275000Y-71325000D03*
X152275000Y-72425000D03*
X152825000Y-70775000D03*
X152825000Y-71875000D03*
X153375000Y-70225000D03*
X153375000Y-71325000D03*
X153375000Y-72425000D03*
X153925000Y-70775000D03*
X153925000Y-71875000D03*
%TD*%
D12*
%TO.N,/ESP32-Microcontroller/DTR*%
%TO.C,J1*%
X130500000Y-87884000D03*
D13*
%TO.N,/ESP32-Microcontroller/RX*%
X130500000Y-85344000D03*
%TO.N,/ESP32-Microcontroller/TX*%
X130500000Y-82804000D03*
%TO.N,VDD3V3*%
X130500000Y-80264000D03*
%TO.N,/ESP32-Microcontroller/RTS*%
X130500000Y-77724000D03*
%TO.N,GND*%
X130500000Y-75184000D03*
%TD*%
D14*
%TO.N,N/C*%
%TO.C,J5*%
X138895000Y-108690000D03*
X163895000Y-108690000D03*
D15*
%TO.N,unconnected-(J5-Pad1)*%
X145855000Y-105850000D03*
D16*
%TO.N,Net-(U6-A)*%
X148625000Y-105850000D03*
%TO.N,Net-(U6-B)*%
X151395000Y-105850000D03*
%TO.N,unconnected-(J5-Pad4)*%
X154165000Y-105850000D03*
%TO.N,GND*%
X156935000Y-105850000D03*
%TO.N,unconnected-(J5-Pad6)*%
X147240000Y-108690000D03*
%TO.N,unconnected-(J5-Pad7)*%
X150010000Y-108690000D03*
%TO.N,unconnected-(J5-Pad8)*%
X152780000Y-108690000D03*
%TO.N,unconnected-(J5-Pad9)*%
X155550000Y-108690000D03*
%TD*%
D10*
%TO.N,GND*%
%TO.C,H3*%
X171875000Y-109600000D03*
%TD*%
D17*
%TO.N,VCC*%
%TO.C,J2*%
X136467100Y-93827600D03*
D18*
%TO.N,GND*%
X136467100Y-98907600D03*
%TD*%
D10*
%TO.N,GND*%
%TO.C,H4*%
X171875000Y-68850000D03*
%TD*%
D19*
%TO.N,GND*%
%TO.C,J3*%
X172875000Y-90465000D03*
D20*
%TO.N,VDD5V*%
X172875000Y-87925000D03*
%TO.N,ADC*%
X172875000Y-85385000D03*
%TD*%
D19*
%TO.N,EXT_TX*%
%TO.C,J6*%
X172875000Y-81715000D03*
D20*
%TO.N,EXT_RX*%
X172875000Y-79175000D03*
%TO.N,GND*%
X172875000Y-76635000D03*
%TD*%
D19*
%TO.N,GND*%
%TO.C,J4*%
X172875000Y-101675000D03*
D20*
%TO.N,VDD5V*%
X172875000Y-99135000D03*
%TO.N,SDA*%
X172875000Y-96595000D03*
%TO.N,SCL*%
X172875000Y-94055000D03*
%TD*%
D21*
%TO.N,GND*%
X140224000Y-90662000D03*
X165395000Y-87991000D03*
X151400000Y-66525000D03*
X157226000Y-102346000D03*
X150327000Y-71612000D03*
X141224000Y-90662000D03*
X150327000Y-66532000D03*
X146050000Y-85598000D03*
X134128000Y-89662000D03*
X165395000Y-86991000D03*
X153375000Y-66525000D03*
X134128000Y-90662000D03*
X158800000Y-67300000D03*
X145304000Y-66532000D03*
X152400000Y-66525000D03*
X157226000Y-101346000D03*
X158226000Y-102346000D03*
X158500000Y-75475000D03*
X135128000Y-90662000D03*
X166370000Y-86991000D03*
X139151000Y-90662000D03*
X157226000Y-100371000D03*
X139151000Y-89662000D03*
X147279000Y-66532000D03*
X150327000Y-70612000D03*
X146050000Y-86598000D03*
X136103000Y-90662000D03*
X136103000Y-89662000D03*
X150327000Y-65532000D03*
X146050000Y-84623000D03*
X142199000Y-90662000D03*
X149352000Y-65532000D03*
X166370000Y-87991000D03*
X135128000Y-89662000D03*
X148352000Y-70612000D03*
X149352000Y-66532000D03*
X151400000Y-65525000D03*
X166370000Y-88916000D03*
X138176000Y-90662000D03*
X142199000Y-89662000D03*
X166370000Y-95250000D03*
X148352000Y-66532000D03*
X158226000Y-101346000D03*
X166370000Y-89916000D03*
X147050000Y-85598000D03*
X149352000Y-70612000D03*
X164395000Y-89916000D03*
X152400000Y-65525000D03*
X146304000Y-66532000D03*
X164395000Y-86991000D03*
X153375000Y-65525000D03*
X147279000Y-65532000D03*
X146304000Y-65532000D03*
X148352000Y-71612000D03*
X165395000Y-88916000D03*
X149352000Y-71612000D03*
X165395000Y-89916000D03*
X137176000Y-90662000D03*
X141224000Y-89662000D03*
X164395000Y-88916000D03*
X147050000Y-84623000D03*
X164395000Y-87991000D03*
X140224000Y-89662000D03*
X158226000Y-100371000D03*
X138176000Y-89662000D03*
X145304000Y-65532000D03*
X148352000Y-65532000D03*
X163068000Y-92964000D03*
X147050000Y-86598000D03*
X137176000Y-89662000D03*
%TO.N,SCL*%
X156925000Y-89025000D03*
X158525000Y-98475000D03*
X141025000Y-77600000D03*
X152750000Y-83075000D03*
%TO.N,/ESP32-Microcontroller/IO0*%
X158700000Y-65675000D03*
X157450000Y-80525000D03*
D22*
%TO.N,VCC*%
X139192000Y-95758000D03*
X139141200Y-93827600D03*
X140766800Y-93827600D03*
X164592000Y-92964000D03*
X142392400Y-92506800D03*
X140766800Y-92506800D03*
X139141200Y-92506800D03*
D21*
%TO.N,VDD5V*%
X163925000Y-78875000D03*
X163068000Y-78875000D03*
%TO.N,Net-(U2-FB)*%
X158400000Y-78975000D03*
X153375000Y-87250000D03*
X154625000Y-79500000D03*
X152775000Y-84325000D03*
%TO.N,/ESP32-Microcontroller/TX*%
X133300000Y-77100000D03*
X152225000Y-67525000D03*
X156700000Y-69800000D03*
X156725000Y-75075000D03*
%TO.N,/ESP32-Microcontroller/RX*%
X156750000Y-77025000D03*
X155950000Y-70525000D03*
X134325000Y-77475000D03*
X151450000Y-68350000D03*
%TO.N,/ESP32-Microcontroller/RTS*%
X141075000Y-81825000D03*
%TO.N,PWM_CCS*%
X156675000Y-94800000D03*
X148875000Y-76475000D03*
%TO.N,ALERT*%
X150775000Y-81900000D03*
X150775000Y-79325000D03*
%TO.N,RS485_IO*%
X142647000Y-87325000D03*
X145625000Y-75225000D03*
%TO.N,CCS_INT*%
X153450000Y-92075000D03*
X150587500Y-75837500D03*
%TO.N,RS485_TX*%
X146750000Y-75200000D03*
X143507000Y-89157000D03*
%TO.N,RS485_RX*%
X144325000Y-86750000D03*
X147675000Y-75100000D03*
D22*
%TO.N,VDD3V3*%
X145375000Y-99950000D03*
D21*
X156950000Y-96400000D03*
X156950000Y-98600000D03*
D22*
X135650000Y-66275000D03*
X146650000Y-99975000D03*
D21*
X139750000Y-79450000D03*
D22*
X144175000Y-99950000D03*
D21*
%TO.N,SDA*%
X152800000Y-82050000D03*
X161925000Y-91125000D03*
D22*
X135750000Y-74375000D03*
D21*
X157745000Y-89550000D03*
D22*
X146875000Y-70050000D03*
%TD*%
%TA.AperFunction,Conductor*%
%TO.N,GND*%
G36*
X175847638Y-64618093D02*
G01*
X175873358Y-64662642D01*
X175874500Y-64675700D01*
X175874500Y-113524300D01*
X175856907Y-113572638D01*
X175812358Y-113598358D01*
X175799300Y-113599500D01*
X126950700Y-113599500D01*
X126902362Y-113581907D01*
X126876642Y-113537358D01*
X126875500Y-113524300D01*
X126875500Y-108548892D01*
X136742100Y-108548892D01*
X136742100Y-108831108D01*
X136778937Y-109110911D01*
X136828918Y-109297444D01*
X136851981Y-109383514D01*
X136851981Y-109383515D01*
X136959980Y-109644246D01*
X137101090Y-109888655D01*
X137272886Y-110112545D01*
X137272898Y-110112559D01*
X137472440Y-110312101D01*
X137472447Y-110312107D01*
X137472449Y-110312109D01*
X137696347Y-110483911D01*
X137940754Y-110625020D01*
X138201488Y-110733020D01*
X138474089Y-110806063D01*
X138753892Y-110842900D01*
X138753895Y-110842900D01*
X139036105Y-110842900D01*
X139036108Y-110842900D01*
X139315911Y-110806063D01*
X139588512Y-110733020D01*
X139849246Y-110625020D01*
X140093653Y-110483911D01*
X140317551Y-110312109D01*
X140517109Y-110112551D01*
X140688911Y-109888653D01*
X140830020Y-109644246D01*
X140938020Y-109383512D01*
X141011063Y-109110911D01*
X141047900Y-108831108D01*
X141047900Y-108596148D01*
X146287100Y-108596148D01*
X146287100Y-108783852D01*
X146323719Y-108967951D01*
X146395551Y-109141368D01*
X146499834Y-109297439D01*
X146499836Y-109297441D01*
X146499838Y-109297444D01*
X146632555Y-109430161D01*
X146632558Y-109430163D01*
X146632561Y-109430166D01*
X146788632Y-109534449D01*
X146962049Y-109606281D01*
X147084781Y-109630693D01*
X147146147Y-109642900D01*
X147146148Y-109642900D01*
X147333853Y-109642900D01*
X147379876Y-109633745D01*
X147517951Y-109606281D01*
X147691368Y-109534449D01*
X147847439Y-109430166D01*
X147980166Y-109297439D01*
X148084449Y-109141368D01*
X148156281Y-108967951D01*
X148192900Y-108783852D01*
X148192900Y-108596148D01*
X149057100Y-108596148D01*
X149057100Y-108783852D01*
X149093719Y-108967951D01*
X149165551Y-109141368D01*
X149269834Y-109297439D01*
X149269836Y-109297441D01*
X149269838Y-109297444D01*
X149402555Y-109430161D01*
X149402558Y-109430163D01*
X149402561Y-109430166D01*
X149558632Y-109534449D01*
X149732049Y-109606281D01*
X149854781Y-109630693D01*
X149916147Y-109642900D01*
X149916148Y-109642900D01*
X150103853Y-109642900D01*
X150149876Y-109633745D01*
X150287951Y-109606281D01*
X150461368Y-109534449D01*
X150617439Y-109430166D01*
X150750166Y-109297439D01*
X150854449Y-109141368D01*
X150926281Y-108967951D01*
X150962900Y-108783852D01*
X150962900Y-108596148D01*
X151827100Y-108596148D01*
X151827100Y-108783852D01*
X151863719Y-108967951D01*
X151935551Y-109141368D01*
X152039834Y-109297439D01*
X152039836Y-109297441D01*
X152039838Y-109297444D01*
X152172555Y-109430161D01*
X152172558Y-109430163D01*
X152172561Y-109430166D01*
X152328632Y-109534449D01*
X152502049Y-109606281D01*
X152624781Y-109630693D01*
X152686147Y-109642900D01*
X152686148Y-109642900D01*
X152873853Y-109642900D01*
X152919876Y-109633745D01*
X153057951Y-109606281D01*
X153231368Y-109534449D01*
X153387439Y-109430166D01*
X153520166Y-109297439D01*
X153624449Y-109141368D01*
X153696281Y-108967951D01*
X153732900Y-108783852D01*
X153732900Y-108596148D01*
X154597100Y-108596148D01*
X154597100Y-108783852D01*
X154633719Y-108967951D01*
X154705551Y-109141368D01*
X154809834Y-109297439D01*
X154809836Y-109297441D01*
X154809838Y-109297444D01*
X154942555Y-109430161D01*
X154942558Y-109430163D01*
X154942561Y-109430166D01*
X155098632Y-109534449D01*
X155272049Y-109606281D01*
X155394781Y-109630693D01*
X155456147Y-109642900D01*
X155456148Y-109642900D01*
X155643853Y-109642900D01*
X155689876Y-109633745D01*
X155827951Y-109606281D01*
X156001368Y-109534449D01*
X156157439Y-109430166D01*
X156290166Y-109297439D01*
X156394449Y-109141368D01*
X156466281Y-108967951D01*
X156502900Y-108783852D01*
X156502900Y-108596148D01*
X156493500Y-108548892D01*
X161742100Y-108548892D01*
X161742100Y-108831108D01*
X161778937Y-109110911D01*
X161828918Y-109297444D01*
X161851981Y-109383514D01*
X161851981Y-109383515D01*
X161959980Y-109644246D01*
X162101090Y-109888655D01*
X162272886Y-110112545D01*
X162272898Y-110112559D01*
X162472440Y-110312101D01*
X162472447Y-110312107D01*
X162472449Y-110312109D01*
X162696347Y-110483911D01*
X162940754Y-110625020D01*
X163201488Y-110733020D01*
X163474089Y-110806063D01*
X163753892Y-110842900D01*
X163753895Y-110842900D01*
X164036105Y-110842900D01*
X164036108Y-110842900D01*
X164315911Y-110806063D01*
X164588512Y-110733020D01*
X164849246Y-110625020D01*
X165093653Y-110483911D01*
X165317551Y-110312109D01*
X165517109Y-110112551D01*
X165688911Y-109888653D01*
X165830020Y-109644246D01*
X165938020Y-109383512D01*
X166011063Y-109110911D01*
X166047900Y-108831108D01*
X166047900Y-108548892D01*
X166011063Y-108269089D01*
X165938020Y-107996488D01*
X165830020Y-107735754D01*
X165688911Y-107491347D01*
X165517109Y-107267449D01*
X165517107Y-107267447D01*
X165517101Y-107267440D01*
X165317559Y-107067898D01*
X165317545Y-107067886D01*
X165093655Y-106896090D01*
X164849246Y-106754980D01*
X164588515Y-106646981D01*
X164588513Y-106646980D01*
X164588512Y-106646980D01*
X164315911Y-106573937D01*
X164036108Y-106537100D01*
X163753892Y-106537100D01*
X163474089Y-106573937D01*
X163474085Y-106573938D01*
X163474084Y-106573938D01*
X163413521Y-106590166D01*
X163201488Y-106646980D01*
X163201486Y-106646980D01*
X163201485Y-106646981D01*
X163201484Y-106646981D01*
X162940753Y-106754980D01*
X162696344Y-106896090D01*
X162472454Y-107067886D01*
X162472440Y-107067898D01*
X162272898Y-107267440D01*
X162272886Y-107267454D01*
X162101090Y-107491344D01*
X161959980Y-107735753D01*
X161851981Y-107996484D01*
X161851981Y-107996485D01*
X161851980Y-107996488D01*
X161828918Y-108082558D01*
X161787098Y-108238633D01*
X161778937Y-108269089D01*
X161742100Y-108548892D01*
X156493500Y-108548892D01*
X156466281Y-108412049D01*
X156394449Y-108238632D01*
X156290166Y-108082561D01*
X156290163Y-108082558D01*
X156290161Y-108082555D01*
X156157444Y-107949838D01*
X156157441Y-107949836D01*
X156157439Y-107949834D01*
X156001368Y-107845551D01*
X155827951Y-107773719D01*
X155827949Y-107773718D01*
X155827948Y-107773718D01*
X155643853Y-107737100D01*
X155643852Y-107737100D01*
X155456148Y-107737100D01*
X155456147Y-107737100D01*
X155272051Y-107773718D01*
X155272049Y-107773719D01*
X155098633Y-107845550D01*
X154942558Y-107949836D01*
X154942555Y-107949838D01*
X154809838Y-108082555D01*
X154809836Y-108082558D01*
X154705550Y-108238633D01*
X154633719Y-108412049D01*
X154633718Y-108412051D01*
X154606499Y-108548894D01*
X154597100Y-108596148D01*
X153732900Y-108596148D01*
X153696281Y-108412049D01*
X153624449Y-108238632D01*
X153520166Y-108082561D01*
X153520163Y-108082558D01*
X153520161Y-108082555D01*
X153387444Y-107949838D01*
X153387441Y-107949836D01*
X153387439Y-107949834D01*
X153231368Y-107845551D01*
X153057951Y-107773719D01*
X153057949Y-107773718D01*
X153057948Y-107773718D01*
X152873853Y-107737100D01*
X152873852Y-107737100D01*
X152686148Y-107737100D01*
X152686147Y-107737100D01*
X152502051Y-107773718D01*
X152502049Y-107773719D01*
X152328633Y-107845550D01*
X152172558Y-107949836D01*
X152172555Y-107949838D01*
X152039838Y-108082555D01*
X152039836Y-108082558D01*
X151935550Y-108238633D01*
X151863719Y-108412049D01*
X151863718Y-108412051D01*
X151836499Y-108548894D01*
X151827100Y-108596148D01*
X150962900Y-108596148D01*
X150926281Y-108412049D01*
X150854449Y-108238632D01*
X150750166Y-108082561D01*
X150750163Y-108082558D01*
X150750161Y-108082555D01*
X150617444Y-107949838D01*
X150617441Y-107949836D01*
X150617439Y-107949834D01*
X150461368Y-107845551D01*
X150287951Y-107773719D01*
X150287949Y-107773718D01*
X150287948Y-107773718D01*
X150103853Y-107737100D01*
X150103852Y-107737100D01*
X149916148Y-107737100D01*
X149916147Y-107737100D01*
X149732051Y-107773718D01*
X149732049Y-107773719D01*
X149558633Y-107845550D01*
X149402558Y-107949836D01*
X149402555Y-107949838D01*
X149269838Y-108082555D01*
X149269836Y-108082558D01*
X149165550Y-108238633D01*
X149093719Y-108412049D01*
X149093718Y-108412051D01*
X149066499Y-108548894D01*
X149057100Y-108596148D01*
X148192900Y-108596148D01*
X148156281Y-108412049D01*
X148084449Y-108238632D01*
X147980166Y-108082561D01*
X147980163Y-108082558D01*
X147980161Y-108082555D01*
X147847444Y-107949838D01*
X147847441Y-107949836D01*
X147847439Y-107949834D01*
X147691368Y-107845551D01*
X147517951Y-107773719D01*
X147517949Y-107773718D01*
X147517948Y-107773718D01*
X147333853Y-107737100D01*
X147333852Y-107737100D01*
X147146148Y-107737100D01*
X147146147Y-107737100D01*
X146962051Y-107773718D01*
X146962049Y-107773719D01*
X146788633Y-107845550D01*
X146632558Y-107949836D01*
X146632555Y-107949838D01*
X146499838Y-108082555D01*
X146499836Y-108082558D01*
X146395550Y-108238633D01*
X146323719Y-108412049D01*
X146323718Y-108412051D01*
X146296499Y-108548894D01*
X146287100Y-108596148D01*
X141047900Y-108596148D01*
X141047900Y-108548892D01*
X141011063Y-108269089D01*
X140938020Y-107996488D01*
X140830020Y-107735754D01*
X140688911Y-107491347D01*
X140517109Y-107267449D01*
X140517107Y-107267447D01*
X140517101Y-107267440D01*
X140317559Y-107067898D01*
X140317545Y-107067886D01*
X140093655Y-106896090D01*
X139849246Y-106754980D01*
X139588515Y-106646981D01*
X139588513Y-106646980D01*
X139588512Y-106646980D01*
X139315911Y-106573937D01*
X139036108Y-106537100D01*
X138753892Y-106537100D01*
X138474089Y-106573937D01*
X138474085Y-106573938D01*
X138474084Y-106573938D01*
X138413521Y-106590166D01*
X138201488Y-106646980D01*
X138201486Y-106646980D01*
X138201485Y-106646981D01*
X138201484Y-106646981D01*
X137940753Y-106754980D01*
X137696344Y-106896090D01*
X137472454Y-107067886D01*
X137472440Y-107067898D01*
X137272898Y-107267440D01*
X137272886Y-107267454D01*
X137101090Y-107491344D01*
X136959980Y-107735753D01*
X136851981Y-107996484D01*
X136851981Y-107996485D01*
X136851980Y-107996488D01*
X136828918Y-108082558D01*
X136787098Y-108238633D01*
X136778937Y-108269089D01*
X136742100Y-108548892D01*
X126875500Y-108548892D01*
X126875500Y-105034942D01*
X144902100Y-105034942D01*
X144902100Y-106665055D01*
X144902101Y-106665057D01*
X144910972Y-106709659D01*
X144944764Y-106760232D01*
X144944765Y-106760232D01*
X144944766Y-106760234D01*
X144995342Y-106794028D01*
X145039943Y-106802900D01*
X146670056Y-106802899D01*
X146714658Y-106794028D01*
X146765234Y-106760234D01*
X146799028Y-106709658D01*
X146807900Y-106665057D01*
X146807899Y-105756147D01*
X147672100Y-105756147D01*
X147672100Y-105756148D01*
X147672100Y-105943852D01*
X147708719Y-106127951D01*
X147780551Y-106301368D01*
X147884834Y-106457439D01*
X147884836Y-106457441D01*
X147884838Y-106457444D01*
X148017555Y-106590161D01*
X148017558Y-106590163D01*
X148017561Y-106590166D01*
X148173632Y-106694449D01*
X148347049Y-106766281D01*
X148469781Y-106790693D01*
X148531147Y-106802900D01*
X148531148Y-106802900D01*
X148718853Y-106802900D01*
X148764876Y-106793745D01*
X148902951Y-106766281D01*
X149076368Y-106694449D01*
X149232439Y-106590166D01*
X149365166Y-106457439D01*
X149469449Y-106301368D01*
X149541281Y-106127951D01*
X149577900Y-105943852D01*
X149577900Y-105756148D01*
X149577900Y-105756147D01*
X150442100Y-105756147D01*
X150442100Y-105756148D01*
X150442100Y-105943852D01*
X150478719Y-106127951D01*
X150550551Y-106301368D01*
X150654834Y-106457439D01*
X150654836Y-106457441D01*
X150654838Y-106457444D01*
X150787555Y-106590161D01*
X150787558Y-106590163D01*
X150787561Y-106590166D01*
X150943632Y-106694449D01*
X151117049Y-106766281D01*
X151239781Y-106790693D01*
X151301147Y-106802900D01*
X151301148Y-106802900D01*
X151488853Y-106802900D01*
X151534876Y-106793745D01*
X151672951Y-106766281D01*
X151846368Y-106694449D01*
X152002439Y-106590166D01*
X152135166Y-106457439D01*
X152239449Y-106301368D01*
X152311281Y-106127951D01*
X152347900Y-105943852D01*
X152347900Y-105756148D01*
X152347900Y-105756147D01*
X153212100Y-105756147D01*
X153212100Y-105756148D01*
X153212100Y-105943852D01*
X153248719Y-106127951D01*
X153320551Y-106301368D01*
X153424834Y-106457439D01*
X153424836Y-106457441D01*
X153424838Y-106457444D01*
X153557555Y-106590161D01*
X153557558Y-106590163D01*
X153557561Y-106590166D01*
X153713632Y-106694449D01*
X153887049Y-106766281D01*
X154009781Y-106790693D01*
X154071147Y-106802900D01*
X154071148Y-106802900D01*
X154258853Y-106802900D01*
X154304876Y-106793745D01*
X154442951Y-106766281D01*
X154616368Y-106694449D01*
X154772439Y-106590166D01*
X154905166Y-106457439D01*
X155009449Y-106301368D01*
X155081281Y-106127951D01*
X155117900Y-105943852D01*
X155117900Y-105756148D01*
X155081281Y-105572049D01*
X155009449Y-105398632D01*
X154905166Y-105242561D01*
X154905163Y-105242558D01*
X154905161Y-105242555D01*
X154772444Y-105109838D01*
X154772441Y-105109836D01*
X154772439Y-105109834D01*
X154616368Y-105005551D01*
X154579650Y-104990342D01*
X154565574Y-104984511D01*
X154442951Y-104933719D01*
X154442949Y-104933718D01*
X154442948Y-104933718D01*
X154258853Y-104897100D01*
X154258852Y-104897100D01*
X154071148Y-104897100D01*
X154071147Y-104897100D01*
X153887051Y-104933718D01*
X153887049Y-104933719D01*
X153713633Y-105005550D01*
X153557558Y-105109836D01*
X153557555Y-105109838D01*
X153424838Y-105242555D01*
X153424836Y-105242558D01*
X153320550Y-105398633D01*
X153248719Y-105572049D01*
X153248718Y-105572051D01*
X153212100Y-105756147D01*
X152347900Y-105756147D01*
X152311281Y-105572049D01*
X152239449Y-105398632D01*
X152135166Y-105242561D01*
X152135163Y-105242558D01*
X152135161Y-105242555D01*
X152002444Y-105109838D01*
X152002441Y-105109836D01*
X152002439Y-105109834D01*
X151846368Y-105005551D01*
X151809650Y-104990342D01*
X151795574Y-104984511D01*
X151672951Y-104933719D01*
X151672949Y-104933718D01*
X151672948Y-104933718D01*
X151488853Y-104897100D01*
X151488852Y-104897100D01*
X151301148Y-104897100D01*
X151301147Y-104897100D01*
X151117051Y-104933718D01*
X151117049Y-104933719D01*
X150943633Y-105005550D01*
X150787558Y-105109836D01*
X150787555Y-105109838D01*
X150654838Y-105242555D01*
X150654836Y-105242558D01*
X150550550Y-105398633D01*
X150478719Y-105572049D01*
X150478718Y-105572051D01*
X150442100Y-105756147D01*
X149577900Y-105756147D01*
X149541281Y-105572049D01*
X149469449Y-105398632D01*
X149365166Y-105242561D01*
X149365163Y-105242558D01*
X149365161Y-105242555D01*
X149232444Y-105109838D01*
X149232441Y-105109836D01*
X149232439Y-105109834D01*
X149076368Y-105005551D01*
X149039650Y-104990342D01*
X149025574Y-104984511D01*
X148902951Y-104933719D01*
X148902949Y-104933718D01*
X148902948Y-104933718D01*
X148718853Y-104897100D01*
X148718852Y-104897100D01*
X148531148Y-104897100D01*
X148531147Y-104897100D01*
X148347051Y-104933718D01*
X148347049Y-104933719D01*
X148173633Y-105005550D01*
X148017558Y-105109836D01*
X148017555Y-105109838D01*
X147884838Y-105242555D01*
X147884836Y-105242558D01*
X147780550Y-105398633D01*
X147708719Y-105572049D01*
X147708718Y-105572051D01*
X147672100Y-105756147D01*
X146807899Y-105756147D01*
X146807899Y-105034944D01*
X146799028Y-104990342D01*
X146765234Y-104939766D01*
X146714658Y-104905972D01*
X146714656Y-104905971D01*
X146670057Y-104897100D01*
X145039944Y-104897100D01*
X145039942Y-104897101D01*
X144995340Y-104905972D01*
X144944767Y-104939764D01*
X144910972Y-104990342D01*
X144910971Y-104990343D01*
X144902100Y-105034942D01*
X126875500Y-105034942D01*
X126875500Y-99885693D01*
X143522100Y-99885693D01*
X143522100Y-100014306D01*
X143541887Y-100113782D01*
X143547191Y-100140444D01*
X143596408Y-100259264D01*
X143667860Y-100366199D01*
X143667862Y-100366201D01*
X143667864Y-100366204D01*
X143758795Y-100457135D01*
X143758798Y-100457137D01*
X143758801Y-100457140D01*
X143865736Y-100528592D01*
X143984556Y-100577809D01*
X144060239Y-100592863D01*
X144110693Y-100602900D01*
X144110695Y-100602900D01*
X144239307Y-100602900D01*
X144281351Y-100594536D01*
X144365444Y-100577809D01*
X144484264Y-100528592D01*
X144591199Y-100457140D01*
X144682140Y-100366199D01*
X144712473Y-100320801D01*
X144753956Y-100290384D01*
X144805286Y-100293748D01*
X144837527Y-100320802D01*
X144867858Y-100366197D01*
X144867864Y-100366204D01*
X144958795Y-100457135D01*
X144958798Y-100457137D01*
X144958801Y-100457140D01*
X145065736Y-100528592D01*
X145184556Y-100577809D01*
X145260239Y-100592863D01*
X145310693Y-100602900D01*
X145310695Y-100602900D01*
X145439307Y-100602900D01*
X145481351Y-100594536D01*
X145565444Y-100577809D01*
X145684264Y-100528592D01*
X145791199Y-100457140D01*
X145882140Y-100366199D01*
X145941919Y-100276732D01*
X145983401Y-100246316D01*
X146034731Y-100249680D01*
X146069003Y-100281427D01*
X146069356Y-100281192D01*
X146070340Y-100282665D01*
X146070762Y-100283056D01*
X146071404Y-100284258D01*
X146071407Y-100284262D01*
X146071408Y-100284264D01*
X146142860Y-100391199D01*
X146142862Y-100391201D01*
X146142864Y-100391204D01*
X146233795Y-100482135D01*
X146233798Y-100482137D01*
X146233801Y-100482140D01*
X146340736Y-100553592D01*
X146459556Y-100602809D01*
X146535239Y-100617863D01*
X146585693Y-100627900D01*
X146585695Y-100627900D01*
X146714307Y-100627900D01*
X146756351Y-100619536D01*
X146840444Y-100602809D01*
X146959264Y-100553592D01*
X147066199Y-100482140D01*
X147157140Y-100391199D01*
X147228592Y-100284264D01*
X147277809Y-100165444D01*
X147302900Y-100039305D01*
X147302900Y-99910695D01*
X147277809Y-99784556D01*
X147228592Y-99665736D01*
X147157140Y-99558801D01*
X147157137Y-99558798D01*
X147157135Y-99558795D01*
X147066204Y-99467864D01*
X147066201Y-99467862D01*
X147066199Y-99467860D01*
X146959264Y-99396408D01*
X146840444Y-99347191D01*
X146840441Y-99347190D01*
X146840440Y-99347190D01*
X146714307Y-99322100D01*
X146714305Y-99322100D01*
X146585695Y-99322100D01*
X146585693Y-99322100D01*
X146459559Y-99347190D01*
X146459556Y-99347191D01*
X146340737Y-99396407D01*
X146233798Y-99467862D01*
X146233795Y-99467864D01*
X146142864Y-99558795D01*
X146142856Y-99558804D01*
X146083080Y-99648266D01*
X146041597Y-99678683D01*
X145990267Y-99675318D01*
X145955997Y-99643571D01*
X145955644Y-99643808D01*
X145954655Y-99642328D01*
X145954234Y-99641938D01*
X145953592Y-99640737D01*
X145953592Y-99640736D01*
X145882140Y-99533801D01*
X145882137Y-99533798D01*
X145882135Y-99533795D01*
X145791204Y-99442864D01*
X145791201Y-99442862D01*
X145791199Y-99442860D01*
X145684264Y-99371408D01*
X145565444Y-99322191D01*
X145565441Y-99322190D01*
X145565440Y-99322190D01*
X145439307Y-99297100D01*
X145439305Y-99297100D01*
X145310695Y-99297100D01*
X145310693Y-99297100D01*
X145184559Y-99322190D01*
X145184556Y-99322191D01*
X145065737Y-99371407D01*
X144958798Y-99442862D01*
X144958795Y-99442864D01*
X144867864Y-99533795D01*
X144867856Y-99533804D01*
X144837526Y-99579198D01*
X144796043Y-99609615D01*
X144744713Y-99606250D01*
X144712474Y-99579198D01*
X144682143Y-99533804D01*
X144682135Y-99533795D01*
X144591204Y-99442864D01*
X144591201Y-99442862D01*
X144591199Y-99442860D01*
X144484264Y-99371408D01*
X144365444Y-99322191D01*
X144365441Y-99322190D01*
X144365440Y-99322190D01*
X144239307Y-99297100D01*
X144239305Y-99297100D01*
X144110695Y-99297100D01*
X144110693Y-99297100D01*
X143984559Y-99322190D01*
X143984556Y-99322191D01*
X143865737Y-99371407D01*
X143758798Y-99442862D01*
X143758795Y-99442864D01*
X143667864Y-99533795D01*
X143667862Y-99533798D01*
X143596407Y-99640737D01*
X143547191Y-99759556D01*
X143547190Y-99759559D01*
X143522100Y-99885693D01*
X126875500Y-99885693D01*
X126875500Y-98540375D01*
X156497100Y-98540375D01*
X156497100Y-98659625D01*
X156522143Y-98753087D01*
X156527964Y-98774813D01*
X156527964Y-98774814D01*
X156587589Y-98878087D01*
X156671912Y-98962410D01*
X156731538Y-98996834D01*
X156775187Y-99022036D01*
X156890375Y-99052900D01*
X156890378Y-99052900D01*
X157009622Y-99052900D01*
X157009625Y-99052900D01*
X157077385Y-99034744D01*
X171707100Y-99034744D01*
X171707100Y-99235255D01*
X171746218Y-99431911D01*
X171746219Y-99431913D01*
X171819825Y-99609615D01*
X171822949Y-99617156D01*
X171934346Y-99783873D01*
X171934348Y-99783875D01*
X171934350Y-99783878D01*
X172076121Y-99925649D01*
X172076124Y-99925651D01*
X172076127Y-99925654D01*
X172242844Y-100037051D01*
X172428090Y-100113782D01*
X172546508Y-100137337D01*
X172624744Y-100152900D01*
X172624746Y-100152900D01*
X173125256Y-100152900D01*
X173190511Y-100139919D01*
X173321910Y-100113782D01*
X173507156Y-100037051D01*
X173673873Y-99925654D01*
X173815654Y-99783873D01*
X173927051Y-99617156D01*
X174003782Y-99431910D01*
X174042900Y-99235254D01*
X174042900Y-99034746D01*
X174003782Y-98838090D01*
X173927051Y-98652844D01*
X173815654Y-98486127D01*
X173815651Y-98486124D01*
X173815649Y-98486121D01*
X173673878Y-98344350D01*
X173673875Y-98344348D01*
X173673873Y-98344346D01*
X173507156Y-98232949D01*
X173374410Y-98177964D01*
X173321913Y-98156219D01*
X173321911Y-98156218D01*
X173125256Y-98117100D01*
X173125254Y-98117100D01*
X172624746Y-98117100D01*
X172624744Y-98117100D01*
X172428088Y-98156218D01*
X172428086Y-98156219D01*
X172242845Y-98232948D01*
X172076124Y-98344348D01*
X172076121Y-98344350D01*
X171934350Y-98486121D01*
X171934348Y-98486124D01*
X171822948Y-98652845D01*
X171746219Y-98838086D01*
X171746218Y-98838088D01*
X171707100Y-99034744D01*
X157077385Y-99034744D01*
X157124813Y-99022036D01*
X157156011Y-99004023D01*
X157221997Y-98965927D01*
X157221998Y-98965926D01*
X157228085Y-98962412D01*
X157312410Y-98878087D01*
X157372036Y-98774813D01*
X157402900Y-98659625D01*
X157402900Y-98540375D01*
X157372036Y-98425187D01*
X157366371Y-98415375D01*
X158072100Y-98415375D01*
X158072100Y-98534625D01*
X158102964Y-98649813D01*
X158102964Y-98649814D01*
X158162589Y-98753087D01*
X158246912Y-98837410D01*
X158306538Y-98871834D01*
X158350187Y-98897036D01*
X158465375Y-98927900D01*
X158465378Y-98927900D01*
X158584622Y-98927900D01*
X158584625Y-98927900D01*
X158699813Y-98897036D01*
X158803087Y-98837410D01*
X158887410Y-98753087D01*
X158947036Y-98649813D01*
X158977900Y-98534625D01*
X158977900Y-98415375D01*
X158947036Y-98300187D01*
X158947035Y-98300185D01*
X158887410Y-98196912D01*
X158803087Y-98112589D01*
X158699813Y-98052964D01*
X158584625Y-98022100D01*
X158465375Y-98022100D01*
X158378984Y-98045248D01*
X158350186Y-98052964D01*
X158350185Y-98052964D01*
X158246912Y-98112589D01*
X158162589Y-98196912D01*
X158102964Y-98300185D01*
X158102964Y-98300186D01*
X158102964Y-98300187D01*
X158072100Y-98415375D01*
X157366371Y-98415375D01*
X157312410Y-98321912D01*
X157228087Y-98237589D01*
X157124813Y-98177964D01*
X157009625Y-98147100D01*
X156890375Y-98147100D01*
X156803984Y-98170248D01*
X156775186Y-98177964D01*
X156775185Y-98177964D01*
X156671912Y-98237589D01*
X156587589Y-98321912D01*
X156527964Y-98425185D01*
X156527964Y-98425186D01*
X156527964Y-98425187D01*
X156497100Y-98540375D01*
X126875500Y-98540375D01*
X126875500Y-95693693D01*
X138539100Y-95693693D01*
X138539100Y-95822306D01*
X138563923Y-95947100D01*
X138564191Y-95948444D01*
X138613408Y-96067264D01*
X138684860Y-96174199D01*
X138684862Y-96174201D01*
X138684864Y-96174204D01*
X138775795Y-96265135D01*
X138775798Y-96265137D01*
X138775801Y-96265140D01*
X138882736Y-96336592D01*
X139001556Y-96385809D01*
X139077239Y-96400863D01*
X139127693Y-96410900D01*
X139127695Y-96410900D01*
X139256307Y-96410900D01*
X139298351Y-96402536D01*
X139382444Y-96385809D01*
X139492131Y-96340375D01*
X156497100Y-96340375D01*
X156497100Y-96459625D01*
X156512248Y-96516158D01*
X156527964Y-96574813D01*
X156527964Y-96574814D01*
X156587589Y-96678087D01*
X156671912Y-96762410D01*
X156731538Y-96796834D01*
X156775187Y-96822036D01*
X156890375Y-96852900D01*
X156890378Y-96852900D01*
X157009622Y-96852900D01*
X157009625Y-96852900D01*
X157124813Y-96822036D01*
X157228087Y-96762410D01*
X157312410Y-96678087D01*
X157372036Y-96574813D01*
X157387753Y-96516156D01*
X169914500Y-96516156D01*
X169914500Y-96673843D01*
X169945263Y-96828498D01*
X169945264Y-96828500D01*
X170005605Y-96974177D01*
X170005606Y-96974179D01*
X170093211Y-97105289D01*
X170093213Y-97105291D01*
X170093215Y-97105294D01*
X170204705Y-97216784D01*
X170204708Y-97216786D01*
X170204711Y-97216789D01*
X170335821Y-97304394D01*
X170481503Y-97364737D01*
X170574630Y-97383261D01*
X170636156Y-97395500D01*
X170636158Y-97395500D01*
X170793844Y-97395500D01*
X170845161Y-97385291D01*
X170948497Y-97364737D01*
X171094179Y-97304394D01*
X171225289Y-97216789D01*
X171336789Y-97105289D01*
X171424394Y-96974179D01*
X171484737Y-96828497D01*
X171515500Y-96673842D01*
X171515500Y-96516158D01*
X171515500Y-96516156D01*
X171515500Y-96516155D01*
X171515499Y-96516152D01*
X171513425Y-96505721D01*
X171511242Y-96494746D01*
X171707100Y-96494746D01*
X171707100Y-96695254D01*
X171746218Y-96891910D01*
X171822949Y-97077156D01*
X171934346Y-97243873D01*
X171934348Y-97243875D01*
X171934350Y-97243878D01*
X172076121Y-97385649D01*
X172076124Y-97385651D01*
X172076127Y-97385654D01*
X172242844Y-97497051D01*
X172428090Y-97573782D01*
X172546508Y-97597337D01*
X172624744Y-97612900D01*
X172624746Y-97612900D01*
X173125256Y-97612900D01*
X173190511Y-97599919D01*
X173321910Y-97573782D01*
X173507156Y-97497051D01*
X173673873Y-97385654D01*
X173815654Y-97243873D01*
X173927051Y-97077156D01*
X174003782Y-96891910D01*
X174042900Y-96695254D01*
X174042900Y-96494746D01*
X174035913Y-96459623D01*
X174021231Y-96385809D01*
X174003782Y-96298090D01*
X173927051Y-96112844D01*
X173815654Y-95946127D01*
X173815651Y-95946124D01*
X173815649Y-95946121D01*
X173673878Y-95804350D01*
X173673875Y-95804348D01*
X173673873Y-95804346D01*
X173507156Y-95692949D01*
X173507154Y-95692948D01*
X173321913Y-95616219D01*
X173321911Y-95616218D01*
X173125256Y-95577100D01*
X173125254Y-95577100D01*
X172624746Y-95577100D01*
X172624744Y-95577100D01*
X172428088Y-95616218D01*
X172428086Y-95616219D01*
X172242845Y-95692948D01*
X172076124Y-95804348D01*
X172076121Y-95804350D01*
X171934350Y-95946121D01*
X171934348Y-95946124D01*
X171822948Y-96112845D01*
X171746219Y-96298086D01*
X171746218Y-96298088D01*
X171714087Y-96459623D01*
X171707100Y-96494746D01*
X171511242Y-96494746D01*
X171494563Y-96410900D01*
X171484737Y-96361503D01*
X171424394Y-96215821D01*
X171336789Y-96084711D01*
X171336786Y-96084708D01*
X171336784Y-96084705D01*
X171225294Y-95973215D01*
X171225291Y-95973213D01*
X171225289Y-95973211D01*
X171094179Y-95885606D01*
X171094177Y-95885605D01*
X170948500Y-95825264D01*
X170948498Y-95825263D01*
X170793844Y-95794500D01*
X170793842Y-95794500D01*
X170636158Y-95794500D01*
X170636156Y-95794500D01*
X170481501Y-95825263D01*
X170481499Y-95825264D01*
X170335822Y-95885605D01*
X170204708Y-95973213D01*
X170204705Y-95973215D01*
X170093215Y-96084705D01*
X170093213Y-96084708D01*
X170005605Y-96215822D01*
X169945264Y-96361499D01*
X169945263Y-96361501D01*
X169914500Y-96516156D01*
X157387753Y-96516156D01*
X157402900Y-96459625D01*
X157402900Y-96340375D01*
X157372036Y-96225187D01*
X157366629Y-96215822D01*
X157312410Y-96121912D01*
X157228087Y-96037589D01*
X157124813Y-95977964D01*
X157107089Y-95973215D01*
X157009625Y-95947100D01*
X156890375Y-95947100D01*
X156803984Y-95970248D01*
X156775186Y-95977964D01*
X156775185Y-95977964D01*
X156671912Y-96037589D01*
X156587589Y-96121912D01*
X156527964Y-96225185D01*
X156527964Y-96225186D01*
X156527964Y-96225187D01*
X156497100Y-96340375D01*
X139492131Y-96340375D01*
X139501264Y-96336592D01*
X139562949Y-96295374D01*
X139596556Y-96272920D01*
X139596556Y-96272919D01*
X139608199Y-96265140D01*
X139699140Y-96174199D01*
X139770592Y-96067264D01*
X139819809Y-95948444D01*
X139839881Y-95847532D01*
X139844900Y-95822306D01*
X139844900Y-95693693D01*
X139829489Y-95616219D01*
X139819809Y-95567556D01*
X139770592Y-95448736D01*
X139699140Y-95341801D01*
X139699137Y-95341798D01*
X139699135Y-95341795D01*
X139608204Y-95250864D01*
X139608201Y-95250862D01*
X139608199Y-95250860D01*
X139501264Y-95179408D01*
X139382444Y-95130191D01*
X139382441Y-95130190D01*
X139382440Y-95130190D01*
X139256307Y-95105100D01*
X139256305Y-95105100D01*
X139127695Y-95105100D01*
X139127693Y-95105100D01*
X139001559Y-95130190D01*
X139001556Y-95130191D01*
X138882737Y-95179407D01*
X138775798Y-95250862D01*
X138775795Y-95250864D01*
X138684864Y-95341795D01*
X138684862Y-95341798D01*
X138613407Y-95448737D01*
X138564191Y-95567556D01*
X138564190Y-95567559D01*
X138539100Y-95693693D01*
X126875500Y-95693693D01*
X126875500Y-93005888D01*
X134514200Y-93005888D01*
X134514200Y-94649302D01*
X134514201Y-94649314D01*
X134529141Y-94743653D01*
X134587085Y-94857373D01*
X134677326Y-94947614D01*
X134677328Y-94947615D01*
X134677329Y-94947616D01*
X134791042Y-95005556D01*
X134791044Y-95005557D01*
X134885391Y-95020500D01*
X138048808Y-95020499D01*
X138056985Y-95019203D01*
X138143153Y-95005558D01*
X138143154Y-95005557D01*
X138143156Y-95005557D01*
X138256871Y-94947616D01*
X138347116Y-94857371D01*
X138405057Y-94743656D01*
X138405577Y-94740375D01*
X156222100Y-94740375D01*
X156222100Y-94859625D01*
X156245676Y-94947614D01*
X156252964Y-94974813D01*
X156252964Y-94974814D01*
X156312589Y-95078087D01*
X156396912Y-95162410D01*
X156426352Y-95179407D01*
X156500187Y-95222036D01*
X156615375Y-95252900D01*
X156615378Y-95252900D01*
X156734622Y-95252900D01*
X156734625Y-95252900D01*
X156849813Y-95222036D01*
X156953087Y-95162410D01*
X157037410Y-95078087D01*
X157097036Y-94974813D01*
X157127900Y-94859625D01*
X157127900Y-94740375D01*
X157097036Y-94625187D01*
X157046210Y-94537154D01*
X157037410Y-94521912D01*
X156953087Y-94437589D01*
X156849813Y-94377964D01*
X156734625Y-94347100D01*
X156615375Y-94347100D01*
X156528984Y-94370248D01*
X156500186Y-94377964D01*
X156500185Y-94377964D01*
X156396912Y-94437589D01*
X156312589Y-94521912D01*
X156252964Y-94625185D01*
X156252964Y-94625186D01*
X156246501Y-94649308D01*
X156222100Y-94740375D01*
X138405577Y-94740375D01*
X138420000Y-94649309D01*
X138419999Y-94170275D01*
X138437592Y-94121939D01*
X138482141Y-94096219D01*
X138532799Y-94105152D01*
X138560533Y-94133807D01*
X138560556Y-94133792D01*
X138560640Y-94133918D01*
X138561518Y-94134825D01*
X138562605Y-94136859D01*
X138562607Y-94136862D01*
X138562608Y-94136864D01*
X138634060Y-94243799D01*
X138634062Y-94243801D01*
X138634064Y-94243804D01*
X138724995Y-94334735D01*
X138724998Y-94334737D01*
X138725001Y-94334740D01*
X138831936Y-94406192D01*
X138950756Y-94455409D01*
X139026439Y-94470463D01*
X139076893Y-94480500D01*
X139076895Y-94480500D01*
X139205507Y-94480500D01*
X139247551Y-94472136D01*
X139331644Y-94455409D01*
X139450464Y-94406192D01*
X139557399Y-94334740D01*
X139648340Y-94243799D01*
X139719792Y-94136864D01*
X139769009Y-94018044D01*
X139794100Y-93891905D01*
X139794100Y-93763295D01*
X139793064Y-93758088D01*
X139784063Y-93712839D01*
X139769009Y-93637156D01*
X139719792Y-93518336D01*
X139648340Y-93411401D01*
X139648337Y-93411398D01*
X139648335Y-93411395D01*
X139557404Y-93320464D01*
X139557401Y-93320462D01*
X139557399Y-93320460D01*
X139450464Y-93249008D01*
X139420690Y-93236675D01*
X139382766Y-93201924D01*
X139376052Y-93150924D01*
X139403690Y-93107540D01*
X139420688Y-93097725D01*
X139450464Y-93085392D01*
X139557399Y-93013940D01*
X139648340Y-92922999D01*
X139719792Y-92816064D01*
X139769009Y-92697244D01*
X139794100Y-92571105D01*
X139794100Y-92442495D01*
X139794100Y-92442493D01*
X140113900Y-92442493D01*
X140113900Y-92571106D01*
X140130535Y-92654737D01*
X140138991Y-92697244D01*
X140170601Y-92773556D01*
X140180653Y-92797826D01*
X140188208Y-92816064D01*
X140259660Y-92922999D01*
X140259662Y-92923001D01*
X140259664Y-92923004D01*
X140350595Y-93013935D01*
X140350598Y-93013937D01*
X140350601Y-93013940D01*
X140457536Y-93085392D01*
X140487308Y-93097724D01*
X140525234Y-93132477D01*
X140531947Y-93183477D01*
X140504308Y-93226861D01*
X140487308Y-93236676D01*
X140457537Y-93249007D01*
X140350598Y-93320462D01*
X140350595Y-93320464D01*
X140259664Y-93411395D01*
X140259662Y-93411398D01*
X140188207Y-93518337D01*
X140138991Y-93637156D01*
X140138990Y-93637159D01*
X140113900Y-93763293D01*
X140113900Y-93891906D01*
X140138990Y-94018040D01*
X140138991Y-94018043D01*
X140186935Y-94133792D01*
X140188208Y-94136864D01*
X140259660Y-94243799D01*
X140259662Y-94243801D01*
X140259664Y-94243804D01*
X140350595Y-94334735D01*
X140350598Y-94334737D01*
X140350601Y-94334740D01*
X140457536Y-94406192D01*
X140576356Y-94455409D01*
X140652039Y-94470463D01*
X140702493Y-94480500D01*
X140702495Y-94480500D01*
X140831107Y-94480500D01*
X140873151Y-94472136D01*
X140957244Y-94455409D01*
X141076064Y-94406192D01*
X141182999Y-94334740D01*
X141273940Y-94243799D01*
X141345392Y-94136864D01*
X141394609Y-94018044D01*
X141407200Y-93954744D01*
X171707100Y-93954744D01*
X171707100Y-94155255D01*
X171746218Y-94351911D01*
X171746219Y-94351913D01*
X171789088Y-94455408D01*
X171822949Y-94537156D01*
X171934346Y-94703873D01*
X171934348Y-94703875D01*
X171934350Y-94703878D01*
X172076121Y-94845649D01*
X172076124Y-94845651D01*
X172076127Y-94845654D01*
X172242844Y-94957051D01*
X172428090Y-95033782D01*
X172546508Y-95057337D01*
X172624744Y-95072900D01*
X172624746Y-95072900D01*
X173125256Y-95072900D01*
X173190511Y-95059919D01*
X173321910Y-95033782D01*
X173507156Y-94957051D01*
X173673873Y-94845654D01*
X173815654Y-94703873D01*
X173927051Y-94537156D01*
X174003782Y-94351910D01*
X174042900Y-94155254D01*
X174042900Y-93954746D01*
X174003782Y-93758090D01*
X173927051Y-93572844D01*
X173815654Y-93406127D01*
X173815651Y-93406124D01*
X173815649Y-93406121D01*
X173673878Y-93264350D01*
X173673875Y-93264348D01*
X173673873Y-93264346D01*
X173507156Y-93152949D01*
X173507154Y-93152948D01*
X173321913Y-93076219D01*
X173321911Y-93076218D01*
X173125256Y-93037100D01*
X173125254Y-93037100D01*
X172624746Y-93037100D01*
X172624744Y-93037100D01*
X172428088Y-93076218D01*
X172428086Y-93076219D01*
X172242845Y-93152948D01*
X172076124Y-93264348D01*
X172076121Y-93264350D01*
X171934350Y-93406121D01*
X171934348Y-93406124D01*
X171822948Y-93572845D01*
X171746219Y-93758086D01*
X171746218Y-93758088D01*
X171707100Y-93954744D01*
X141407200Y-93954744D01*
X141419700Y-93891905D01*
X141419700Y-93763295D01*
X141418664Y-93758088D01*
X141409663Y-93712839D01*
X141394609Y-93637156D01*
X141345392Y-93518336D01*
X141273940Y-93411401D01*
X141273937Y-93411398D01*
X141273935Y-93411395D01*
X141183004Y-93320464D01*
X141183001Y-93320462D01*
X141182999Y-93320460D01*
X141076064Y-93249008D01*
X141046290Y-93236675D01*
X141008366Y-93201924D01*
X141001652Y-93150924D01*
X141029290Y-93107540D01*
X141046288Y-93097725D01*
X141076064Y-93085392D01*
X141182999Y-93013940D01*
X141273940Y-92922999D01*
X141345392Y-92816064D01*
X141394609Y-92697244D01*
X141419700Y-92571105D01*
X141419700Y-92442495D01*
X141419700Y-92442493D01*
X141739500Y-92442493D01*
X141739500Y-92571106D01*
X141756135Y-92654737D01*
X141764591Y-92697244D01*
X141796201Y-92773556D01*
X141806253Y-92797826D01*
X141813808Y-92816064D01*
X141885260Y-92922999D01*
X141885262Y-92923001D01*
X141885264Y-92923004D01*
X141976195Y-93013935D01*
X141976198Y-93013937D01*
X141976201Y-93013940D01*
X142083136Y-93085392D01*
X142201956Y-93134609D01*
X142277639Y-93149663D01*
X142328093Y-93159700D01*
X142328095Y-93159700D01*
X142456707Y-93159700D01*
X142500824Y-93150924D01*
X142582844Y-93134609D01*
X142701664Y-93085392D01*
X142808599Y-93013940D01*
X142899540Y-92922999D01*
X142915113Y-92899693D01*
X163939100Y-92899693D01*
X163939100Y-93028306D01*
X163963893Y-93152949D01*
X163964191Y-93154444D01*
X164013408Y-93273264D01*
X164084860Y-93380199D01*
X164084862Y-93380201D01*
X164084864Y-93380204D01*
X164175795Y-93471135D01*
X164175798Y-93471137D01*
X164175801Y-93471140D01*
X164282736Y-93542592D01*
X164401556Y-93591809D01*
X164477239Y-93606863D01*
X164527693Y-93616900D01*
X164527695Y-93616900D01*
X164656307Y-93616900D01*
X164698351Y-93608536D01*
X164782444Y-93591809D01*
X164901264Y-93542592D01*
X165008199Y-93471140D01*
X165099140Y-93380199D01*
X165170592Y-93273264D01*
X165219809Y-93154444D01*
X165244900Y-93028305D01*
X165244900Y-92899695D01*
X165219809Y-92773556D01*
X165170592Y-92654736D01*
X165099140Y-92547801D01*
X165099137Y-92547798D01*
X165099135Y-92547795D01*
X165008204Y-92456864D01*
X165008201Y-92456862D01*
X165008199Y-92456860D01*
X164901264Y-92385408D01*
X164782444Y-92336191D01*
X164782441Y-92336190D01*
X164782440Y-92336190D01*
X164656307Y-92311100D01*
X164656305Y-92311100D01*
X164527695Y-92311100D01*
X164527693Y-92311100D01*
X164401559Y-92336190D01*
X164401556Y-92336191D01*
X164282737Y-92385407D01*
X164175798Y-92456862D01*
X164175795Y-92456864D01*
X164084864Y-92547795D01*
X164084862Y-92547798D01*
X164013407Y-92654737D01*
X163964191Y-92773556D01*
X163964190Y-92773559D01*
X163939100Y-92899693D01*
X142915113Y-92899693D01*
X142970992Y-92816064D01*
X143020209Y-92697244D01*
X143045300Y-92571105D01*
X143045300Y-92442495D01*
X143020209Y-92316356D01*
X142970992Y-92197536D01*
X142899540Y-92090601D01*
X142899537Y-92090598D01*
X142899535Y-92090595D01*
X142824315Y-92015375D01*
X152997100Y-92015375D01*
X152997100Y-92134625D01*
X153013957Y-92197536D01*
X153027964Y-92249813D01*
X153027964Y-92249814D01*
X153087589Y-92353087D01*
X153171912Y-92437410D01*
X153231538Y-92471834D01*
X153275187Y-92497036D01*
X153390375Y-92527900D01*
X153390378Y-92527900D01*
X153509622Y-92527900D01*
X153509625Y-92527900D01*
X153624813Y-92497036D01*
X153728087Y-92437410D01*
X153812410Y-92353087D01*
X153872036Y-92249813D01*
X153902900Y-92134625D01*
X153902900Y-92015375D01*
X153872036Y-91900187D01*
X153872035Y-91900185D01*
X153812410Y-91796912D01*
X153728087Y-91712589D01*
X153624813Y-91652964D01*
X153509625Y-91622100D01*
X153390375Y-91622100D01*
X153303984Y-91645248D01*
X153275186Y-91652964D01*
X153275185Y-91652964D01*
X153171912Y-91712589D01*
X153087589Y-91796912D01*
X153027964Y-91900185D01*
X153027964Y-91900186D01*
X153027964Y-91900187D01*
X152997100Y-92015375D01*
X142824315Y-92015375D01*
X142808604Y-91999664D01*
X142808601Y-91999662D01*
X142808599Y-91999660D01*
X142701664Y-91928208D01*
X142582844Y-91878991D01*
X142582841Y-91878990D01*
X142582840Y-91878990D01*
X142456707Y-91853900D01*
X142456705Y-91853900D01*
X142328095Y-91853900D01*
X142328093Y-91853900D01*
X142201959Y-91878990D01*
X142201956Y-91878991D01*
X142083137Y-91928207D01*
X141976198Y-91999662D01*
X141976195Y-91999664D01*
X141885264Y-92090595D01*
X141885262Y-92090598D01*
X141813807Y-92197537D01*
X141764591Y-92316356D01*
X141764590Y-92316359D01*
X141739500Y-92442493D01*
X141419700Y-92442493D01*
X141394609Y-92316356D01*
X141345392Y-92197536D01*
X141273940Y-92090601D01*
X141273937Y-92090598D01*
X141273935Y-92090595D01*
X141183004Y-91999664D01*
X141183001Y-91999662D01*
X141182999Y-91999660D01*
X141076064Y-91928208D01*
X140957244Y-91878991D01*
X140957241Y-91878990D01*
X140957240Y-91878990D01*
X140831107Y-91853900D01*
X140831105Y-91853900D01*
X140702495Y-91853900D01*
X140702493Y-91853900D01*
X140576359Y-91878990D01*
X140576356Y-91878991D01*
X140457537Y-91928207D01*
X140350598Y-91999662D01*
X140350595Y-91999664D01*
X140259664Y-92090595D01*
X140259662Y-92090598D01*
X140188207Y-92197537D01*
X140138991Y-92316356D01*
X140138990Y-92316359D01*
X140113900Y-92442493D01*
X139794100Y-92442493D01*
X139769009Y-92316356D01*
X139719792Y-92197536D01*
X139648340Y-92090601D01*
X139648337Y-92090598D01*
X139648335Y-92090595D01*
X139557404Y-91999664D01*
X139557401Y-91999662D01*
X139557399Y-91999660D01*
X139450464Y-91928208D01*
X139331644Y-91878991D01*
X139331641Y-91878990D01*
X139331640Y-91878990D01*
X139205507Y-91853900D01*
X139205505Y-91853900D01*
X139076895Y-91853900D01*
X139076893Y-91853900D01*
X138950759Y-91878990D01*
X138950756Y-91878991D01*
X138831937Y-91928207D01*
X138724998Y-91999662D01*
X138724995Y-91999664D01*
X138634064Y-92090595D01*
X138634062Y-92090598D01*
X138562607Y-92197537D01*
X138513391Y-92316356D01*
X138513390Y-92316359D01*
X138488300Y-92442493D01*
X138488300Y-92571106D01*
X138504935Y-92654737D01*
X138513391Y-92697244D01*
X138545001Y-92773556D01*
X138555053Y-92797826D01*
X138562608Y-92816064D01*
X138634060Y-92922999D01*
X138634062Y-92923001D01*
X138634064Y-92923004D01*
X138724995Y-93013935D01*
X138724998Y-93013937D01*
X138725001Y-93013940D01*
X138831936Y-93085392D01*
X138861708Y-93097724D01*
X138899634Y-93132477D01*
X138906347Y-93183477D01*
X138878708Y-93226861D01*
X138861708Y-93236676D01*
X138831937Y-93249007D01*
X138724998Y-93320462D01*
X138724995Y-93320464D01*
X138634064Y-93411395D01*
X138634062Y-93411398D01*
X138634060Y-93411401D01*
X138594144Y-93471140D01*
X138562602Y-93518345D01*
X138561515Y-93520379D01*
X138560838Y-93520985D01*
X138560556Y-93521408D01*
X138560447Y-93521335D01*
X138523209Y-93554711D01*
X138471796Y-93556388D01*
X138431334Y-93524625D01*
X138419999Y-93484922D01*
X138419999Y-93005897D01*
X138419998Y-93005885D01*
X138405058Y-92911546D01*
X138347114Y-92797826D01*
X138256873Y-92707585D01*
X138143156Y-92649643D01*
X138143158Y-92649643D01*
X138095982Y-92642171D01*
X138048809Y-92634700D01*
X138048807Y-92634700D01*
X134885397Y-92634700D01*
X134885385Y-92634701D01*
X134791046Y-92649641D01*
X134677326Y-92707585D01*
X134587085Y-92797826D01*
X134529143Y-92911542D01*
X134514200Y-93005888D01*
X126875500Y-93005888D01*
X126875500Y-91065375D01*
X161472100Y-91065375D01*
X161472100Y-91184625D01*
X161502964Y-91299813D01*
X161502964Y-91299814D01*
X161562589Y-91403087D01*
X161646912Y-91487410D01*
X161706538Y-91521834D01*
X161750187Y-91547036D01*
X161865375Y-91577900D01*
X161865378Y-91577900D01*
X161984622Y-91577900D01*
X161984625Y-91577900D01*
X162099813Y-91547036D01*
X162203087Y-91487410D01*
X162287410Y-91403087D01*
X162347036Y-91299813D01*
X162377900Y-91184625D01*
X162377900Y-91065375D01*
X162347036Y-90950187D01*
X162347035Y-90950185D01*
X162287410Y-90846912D01*
X162203087Y-90762589D01*
X162099813Y-90702964D01*
X161984625Y-90672100D01*
X161865375Y-90672100D01*
X161778984Y-90695248D01*
X161750186Y-90702964D01*
X161750185Y-90702964D01*
X161646912Y-90762589D01*
X161562589Y-90846912D01*
X161502964Y-90950185D01*
X161502964Y-90950186D01*
X161502964Y-90950187D01*
X161472100Y-91065375D01*
X126875500Y-91065375D01*
X126875500Y-89097375D01*
X143054100Y-89097375D01*
X143054100Y-89216625D01*
X143077267Y-89303087D01*
X143084964Y-89331813D01*
X143084964Y-89331814D01*
X143144589Y-89435087D01*
X143228912Y-89519410D01*
X143288538Y-89553834D01*
X143332187Y-89579036D01*
X143447375Y-89609900D01*
X143447378Y-89609900D01*
X143566622Y-89609900D01*
X143566625Y-89609900D01*
X143681813Y-89579036D01*
X143785087Y-89519410D01*
X143869410Y-89435087D01*
X143929036Y-89331813D01*
X143959900Y-89216625D01*
X143959900Y-89097375D01*
X143929036Y-88982187D01*
X143919329Y-88965375D01*
X156472100Y-88965375D01*
X156472100Y-89084625D01*
X156492207Y-89159667D01*
X156502964Y-89199813D01*
X156502964Y-89199814D01*
X156562589Y-89303087D01*
X156646912Y-89387410D01*
X156666197Y-89398544D01*
X156750187Y-89447036D01*
X156865375Y-89477900D01*
X156865378Y-89477900D01*
X156984622Y-89477900D01*
X156984625Y-89477900D01*
X157099813Y-89447036D01*
X157183803Y-89398544D01*
X157234461Y-89389611D01*
X157279009Y-89415331D01*
X157296603Y-89463669D01*
X157294041Y-89483130D01*
X157292100Y-89490375D01*
X157292100Y-89609625D01*
X157292174Y-89609900D01*
X157322964Y-89724813D01*
X157322964Y-89724814D01*
X157382589Y-89828087D01*
X157466912Y-89912410D01*
X157526538Y-89946834D01*
X157570187Y-89972036D01*
X157685375Y-90002900D01*
X157685378Y-90002900D01*
X157804622Y-90002900D01*
X157804625Y-90002900D01*
X157919813Y-89972036D01*
X158023087Y-89912410D01*
X158107410Y-89828087D01*
X158167036Y-89724813D01*
X158197900Y-89609625D01*
X158197900Y-89490375D01*
X158167036Y-89375187D01*
X158167035Y-89375185D01*
X158107410Y-89271912D01*
X158023087Y-89187589D01*
X157919813Y-89127964D01*
X157804625Y-89097100D01*
X157685375Y-89097100D01*
X157570187Y-89127964D01*
X157486195Y-89176456D01*
X157435537Y-89185387D01*
X157390989Y-89159667D01*
X157373396Y-89111329D01*
X157375959Y-89091868D01*
X157377900Y-89084625D01*
X157377900Y-88965375D01*
X157347036Y-88850187D01*
X157343598Y-88844232D01*
X157287410Y-88746912D01*
X157203087Y-88662589D01*
X157099813Y-88602964D01*
X156984625Y-88572100D01*
X156865375Y-88572100D01*
X156778984Y-88595248D01*
X156750186Y-88602964D01*
X156750185Y-88602964D01*
X156646912Y-88662589D01*
X156562589Y-88746912D01*
X156502964Y-88850185D01*
X156502964Y-88850186D01*
X156502964Y-88850187D01*
X156472100Y-88965375D01*
X143919329Y-88965375D01*
X143893607Y-88920823D01*
X143869410Y-88878912D01*
X143785087Y-88794589D01*
X143681813Y-88734964D01*
X143566625Y-88704100D01*
X143447375Y-88704100D01*
X143360984Y-88727248D01*
X143332186Y-88734964D01*
X143332185Y-88734964D01*
X143228912Y-88794589D01*
X143144589Y-88878912D01*
X143084964Y-88982185D01*
X143084964Y-88982186D01*
X143084964Y-88982187D01*
X143054100Y-89097375D01*
X126875500Y-89097375D01*
X126875500Y-87018942D01*
X129497100Y-87018942D01*
X129497100Y-88749055D01*
X129497101Y-88749057D01*
X129505972Y-88793659D01*
X129539764Y-88844232D01*
X129539765Y-88844232D01*
X129539766Y-88844234D01*
X129590342Y-88878028D01*
X129634943Y-88886900D01*
X131365056Y-88886899D01*
X131409658Y-88878028D01*
X131460234Y-88844234D01*
X131494028Y-88793658D01*
X131502900Y-88749057D01*
X131502899Y-87824746D01*
X171707100Y-87824746D01*
X171707100Y-88025254D01*
X171746218Y-88221910D01*
X171822949Y-88407156D01*
X171934346Y-88573873D01*
X171934348Y-88573875D01*
X171934350Y-88573878D01*
X172076121Y-88715649D01*
X172076124Y-88715651D01*
X172076127Y-88715654D01*
X172242844Y-88827051D01*
X172428090Y-88903782D01*
X172546508Y-88927337D01*
X172624744Y-88942900D01*
X172624746Y-88942900D01*
X173125256Y-88942900D01*
X173190511Y-88929919D01*
X173321910Y-88903782D01*
X173507156Y-88827051D01*
X173673873Y-88715654D01*
X173815654Y-88573873D01*
X173927051Y-88407156D01*
X174003782Y-88221910D01*
X174042900Y-88025254D01*
X174042900Y-87824746D01*
X174003782Y-87628090D01*
X173927051Y-87442844D01*
X173815654Y-87276127D01*
X173815651Y-87276124D01*
X173815649Y-87276121D01*
X173673878Y-87134350D01*
X173673875Y-87134348D01*
X173673873Y-87134346D01*
X173507156Y-87022949D01*
X173497485Y-87018943D01*
X173321913Y-86946219D01*
X173321911Y-86946218D01*
X173125256Y-86907100D01*
X173125254Y-86907100D01*
X172624746Y-86907100D01*
X172624744Y-86907100D01*
X172428088Y-86946218D01*
X172428086Y-86946219D01*
X172242845Y-87022948D01*
X172076124Y-87134348D01*
X172076121Y-87134350D01*
X171934350Y-87276121D01*
X171934348Y-87276124D01*
X171822948Y-87442845D01*
X171746219Y-87628086D01*
X171746218Y-87628088D01*
X171722284Y-87748414D01*
X171707100Y-87824746D01*
X131502899Y-87824746D01*
X131502899Y-87265375D01*
X142194100Y-87265375D01*
X142194100Y-87384625D01*
X142209700Y-87442845D01*
X142224964Y-87499813D01*
X142224964Y-87499814D01*
X142284589Y-87603087D01*
X142368912Y-87687410D01*
X142395742Y-87702900D01*
X142472187Y-87747036D01*
X142587375Y-87777900D01*
X142587378Y-87777900D01*
X142706623Y-87777900D01*
X142706625Y-87777900D01*
X142821813Y-87747036D01*
X142925087Y-87687410D01*
X143009410Y-87603087D01*
X143069036Y-87499813D01*
X143099900Y-87384625D01*
X143099900Y-87265375D01*
X143069036Y-87150187D01*
X143069035Y-87150185D01*
X143009410Y-87046912D01*
X142925087Y-86962589D01*
X142821813Y-86902964D01*
X142706625Y-86872100D01*
X142587375Y-86872100D01*
X142520675Y-86889972D01*
X142472186Y-86902964D01*
X142472185Y-86902964D01*
X142368912Y-86962589D01*
X142284589Y-87046912D01*
X142224964Y-87150185D01*
X142224964Y-87150186D01*
X142224964Y-87150187D01*
X142194100Y-87265375D01*
X131502899Y-87265375D01*
X131502899Y-87018944D01*
X131494028Y-86974342D01*
X131492404Y-86971912D01*
X131460235Y-86923767D01*
X131460231Y-86923764D01*
X131409658Y-86889972D01*
X131409656Y-86889971D01*
X131365057Y-86881100D01*
X129634944Y-86881100D01*
X129634942Y-86881101D01*
X129590340Y-86889972D01*
X129539767Y-86923764D01*
X129505972Y-86974342D01*
X129505971Y-86974343D01*
X129497100Y-87018942D01*
X126875500Y-87018942D01*
X126875500Y-86690375D01*
X143872100Y-86690375D01*
X143872100Y-86809625D01*
X143893629Y-86889972D01*
X143902964Y-86924813D01*
X143902964Y-86924814D01*
X143962589Y-87028087D01*
X144046912Y-87112410D01*
X144106538Y-87146834D01*
X144150187Y-87172036D01*
X144265375Y-87202900D01*
X144265378Y-87202900D01*
X144384622Y-87202900D01*
X144384625Y-87202900D01*
X144431370Y-87190375D01*
X152922100Y-87190375D01*
X152922100Y-87309625D01*
X152942195Y-87384622D01*
X152952964Y-87424813D01*
X152952964Y-87424814D01*
X153012589Y-87528087D01*
X153096912Y-87612410D01*
X153124071Y-87628090D01*
X153200187Y-87672036D01*
X153315375Y-87702900D01*
X153315378Y-87702900D01*
X153434622Y-87702900D01*
X153434625Y-87702900D01*
X153549813Y-87672036D01*
X153653087Y-87612410D01*
X153737410Y-87528087D01*
X153797036Y-87424813D01*
X153827900Y-87309625D01*
X153827900Y-87190375D01*
X153797036Y-87075187D01*
X153780711Y-87046912D01*
X153737410Y-86971912D01*
X153653087Y-86887589D01*
X153549813Y-86827964D01*
X153434625Y-86797100D01*
X153315375Y-86797100D01*
X153228984Y-86820248D01*
X153200186Y-86827964D01*
X153200185Y-86827964D01*
X153096912Y-86887589D01*
X153012589Y-86971912D01*
X152952964Y-87075185D01*
X152952964Y-87075186D01*
X152952964Y-87075187D01*
X152922100Y-87190375D01*
X144431370Y-87190375D01*
X144499813Y-87172036D01*
X144537660Y-87150185D01*
X144589386Y-87120321D01*
X144603087Y-87112410D01*
X144687410Y-87028087D01*
X144725225Y-86962590D01*
X144747036Y-86924813D01*
X144777900Y-86809625D01*
X144777900Y-86690375D01*
X144747036Y-86575187D01*
X144747035Y-86575185D01*
X144687410Y-86471912D01*
X144603087Y-86387589D01*
X144499813Y-86327964D01*
X144384625Y-86297100D01*
X144265375Y-86297100D01*
X144178984Y-86320248D01*
X144150186Y-86327964D01*
X144150185Y-86327964D01*
X144046912Y-86387589D01*
X143962589Y-86471912D01*
X143902964Y-86575185D01*
X143902964Y-86575186D01*
X143902964Y-86575187D01*
X143872100Y-86690375D01*
X126875500Y-86690375D01*
X126875500Y-85245222D01*
X129497100Y-85245222D01*
X129497100Y-85442777D01*
X129535641Y-85636537D01*
X129535642Y-85636538D01*
X129611241Y-85819051D01*
X129720996Y-85983312D01*
X129720997Y-85983313D01*
X129721000Y-85983317D01*
X129860682Y-86122999D01*
X129860685Y-86123001D01*
X129860688Y-86123004D01*
X130024949Y-86232759D01*
X130207461Y-86308357D01*
X130207462Y-86308358D01*
X130207463Y-86308358D01*
X130207465Y-86308359D01*
X130306026Y-86327964D01*
X130401222Y-86346900D01*
X130401223Y-86346900D01*
X130598778Y-86346900D01*
X130646889Y-86337329D01*
X130792535Y-86308359D01*
X130975051Y-86232759D01*
X131139312Y-86123004D01*
X131279004Y-85983312D01*
X131388759Y-85819051D01*
X131464359Y-85636535D01*
X131502900Y-85442777D01*
X131502900Y-85284744D01*
X171707100Y-85284744D01*
X171707100Y-85485255D01*
X171746218Y-85681911D01*
X171746219Y-85681913D01*
X171803023Y-85819051D01*
X171822949Y-85867156D01*
X171934346Y-86033873D01*
X171934347Y-86033874D01*
X171934350Y-86033878D01*
X172076121Y-86175649D01*
X172076124Y-86175651D01*
X172076127Y-86175654D01*
X172242844Y-86287051D01*
X172428090Y-86363782D01*
X172546508Y-86387337D01*
X172624744Y-86402900D01*
X172624746Y-86402900D01*
X173125256Y-86402900D01*
X173202226Y-86387589D01*
X173321910Y-86363782D01*
X173507156Y-86287051D01*
X173673873Y-86175654D01*
X173815654Y-86033873D01*
X173927051Y-85867156D01*
X174003782Y-85681910D01*
X174042900Y-85485254D01*
X174042900Y-85284746D01*
X174003782Y-85088090D01*
X173927051Y-84902844D01*
X173815654Y-84736127D01*
X173815651Y-84736124D01*
X173815649Y-84736121D01*
X173673878Y-84594350D01*
X173673875Y-84594348D01*
X173673873Y-84594346D01*
X173507156Y-84482949D01*
X173440263Y-84455241D01*
X173321913Y-84406219D01*
X173321911Y-84406218D01*
X173125256Y-84367100D01*
X173125254Y-84367100D01*
X172624746Y-84367100D01*
X172624744Y-84367100D01*
X172428088Y-84406218D01*
X172428086Y-84406219D01*
X172242845Y-84482948D01*
X172076124Y-84594348D01*
X172076121Y-84594350D01*
X171934350Y-84736121D01*
X171934348Y-84736124D01*
X171822948Y-84902845D01*
X171746219Y-85088086D01*
X171746218Y-85088088D01*
X171707100Y-85284744D01*
X131502900Y-85284744D01*
X131502900Y-85245223D01*
X131464359Y-85051465D01*
X131388759Y-84868949D01*
X131279004Y-84704688D01*
X131279001Y-84704685D01*
X131278999Y-84704682D01*
X131139317Y-84565000D01*
X131139313Y-84564997D01*
X131139312Y-84564996D01*
X130975051Y-84455241D01*
X130975049Y-84455240D01*
X130792538Y-84379642D01*
X130792537Y-84379641D01*
X130598778Y-84341100D01*
X130598777Y-84341100D01*
X130401223Y-84341100D01*
X130401222Y-84341100D01*
X130207462Y-84379641D01*
X130207461Y-84379642D01*
X130024950Y-84455240D01*
X129860682Y-84565000D01*
X129721000Y-84704682D01*
X129611240Y-84868950D01*
X129535642Y-85051461D01*
X129535641Y-85051462D01*
X129497100Y-85245222D01*
X126875500Y-85245222D01*
X126875500Y-84265375D01*
X152322100Y-84265375D01*
X152322100Y-84384625D01*
X152352964Y-84499813D01*
X152352964Y-84499814D01*
X152412589Y-84603087D01*
X152496912Y-84687410D01*
X152526839Y-84704688D01*
X152600187Y-84747036D01*
X152715375Y-84777900D01*
X152715378Y-84777900D01*
X152834622Y-84777900D01*
X152834625Y-84777900D01*
X152949813Y-84747036D01*
X153053087Y-84687410D01*
X153137410Y-84603087D01*
X153197036Y-84499813D01*
X153227900Y-84384625D01*
X153227900Y-84265375D01*
X153197036Y-84150187D01*
X153197035Y-84150185D01*
X153137410Y-84046912D01*
X153053087Y-83962589D01*
X152949813Y-83902964D01*
X152834625Y-83872100D01*
X152715375Y-83872100D01*
X152628984Y-83895248D01*
X152600186Y-83902964D01*
X152600185Y-83902964D01*
X152496912Y-83962589D01*
X152412589Y-84046912D01*
X152352964Y-84150185D01*
X152352964Y-84150186D01*
X152352964Y-84150187D01*
X152322100Y-84265375D01*
X126875500Y-84265375D01*
X126875500Y-82705222D01*
X129497100Y-82705222D01*
X129497100Y-82902777D01*
X129535641Y-83096537D01*
X129535642Y-83096538D01*
X129611241Y-83279051D01*
X129720996Y-83443312D01*
X129720997Y-83443313D01*
X129721000Y-83443317D01*
X129860682Y-83582999D01*
X129860685Y-83583001D01*
X129860688Y-83583004D01*
X130024949Y-83692759D01*
X130207461Y-83768357D01*
X130207462Y-83768358D01*
X130207463Y-83768358D01*
X130207465Y-83768359D01*
X130337218Y-83794168D01*
X130401222Y-83806900D01*
X130401223Y-83806900D01*
X130598778Y-83806900D01*
X130646889Y-83797329D01*
X130792535Y-83768359D01*
X130975051Y-83692759D01*
X131139312Y-83583004D01*
X131279004Y-83443312D01*
X131388759Y-83279051D01*
X131464359Y-83096535D01*
X131480503Y-83015375D01*
X152297100Y-83015375D01*
X152297100Y-83134625D01*
X152327964Y-83249813D01*
X152327964Y-83249814D01*
X152387589Y-83353087D01*
X152471912Y-83437410D01*
X152531538Y-83471834D01*
X152575187Y-83497036D01*
X152690375Y-83527900D01*
X152690378Y-83527900D01*
X152809622Y-83527900D01*
X152809625Y-83527900D01*
X152924813Y-83497036D01*
X153028087Y-83437410D01*
X153112410Y-83353087D01*
X153172036Y-83249813D01*
X153202900Y-83134625D01*
X153202900Y-83015375D01*
X153172036Y-82900187D01*
X153172035Y-82900185D01*
X153112410Y-82796912D01*
X153028087Y-82712589D01*
X152924813Y-82652964D01*
X152883282Y-82641836D01*
X152841145Y-82612331D01*
X152827831Y-82562644D01*
X152849571Y-82516023D01*
X152883279Y-82496561D01*
X152974813Y-82472036D01*
X153078087Y-82412410D01*
X153162410Y-82328087D01*
X153222036Y-82224813D01*
X153252900Y-82109625D01*
X153252900Y-81990375D01*
X153222036Y-81875187D01*
X153201514Y-81839642D01*
X153162410Y-81771912D01*
X153078087Y-81687589D01*
X152974813Y-81627964D01*
X152859625Y-81597100D01*
X152740375Y-81597100D01*
X152653984Y-81620248D01*
X152625186Y-81627964D01*
X152625185Y-81627964D01*
X152521912Y-81687589D01*
X152437589Y-81771912D01*
X152377964Y-81875185D01*
X152377964Y-81875186D01*
X152377964Y-81875187D01*
X152347100Y-81990375D01*
X152347100Y-82109625D01*
X152361854Y-82164688D01*
X152377964Y-82224813D01*
X152377964Y-82224814D01*
X152437589Y-82328087D01*
X152521912Y-82412410D01*
X152625185Y-82472035D01*
X152625187Y-82472036D01*
X152666717Y-82483163D01*
X152708854Y-82512667D01*
X152722168Y-82562354D01*
X152700429Y-82608975D01*
X152666717Y-82628439D01*
X152575187Y-82652964D01*
X152575185Y-82652964D01*
X152471912Y-82712589D01*
X152387589Y-82796912D01*
X152327964Y-82900185D01*
X152327964Y-82900186D01*
X152327964Y-82900187D01*
X152297100Y-83015375D01*
X131480503Y-83015375D01*
X131502900Y-82902777D01*
X131502900Y-82705223D01*
X131499918Y-82690234D01*
X131486366Y-82622100D01*
X131464359Y-82511465D01*
X131388759Y-82328949D01*
X131279004Y-82164688D01*
X131279001Y-82164685D01*
X131278999Y-82164682D01*
X131139317Y-82025000D01*
X131139313Y-82024997D01*
X131139312Y-82024996D01*
X130975051Y-81915241D01*
X130901130Y-81884622D01*
X130792538Y-81839642D01*
X130792537Y-81839641D01*
X130776307Y-81836413D01*
X130668969Y-81815062D01*
X130598778Y-81801100D01*
X130598777Y-81801100D01*
X130401223Y-81801100D01*
X130401222Y-81801100D01*
X130207462Y-81839641D01*
X130207461Y-81839642D01*
X130024950Y-81915240D01*
X129860682Y-82025000D01*
X129721000Y-82164682D01*
X129611240Y-82328950D01*
X129535642Y-82511461D01*
X129535641Y-82511462D01*
X129497100Y-82705222D01*
X126875500Y-82705222D01*
X126875500Y-81765375D01*
X140622100Y-81765375D01*
X140622100Y-81884625D01*
X140642195Y-81959622D01*
X140652964Y-81999813D01*
X140652964Y-81999814D01*
X140712589Y-82103087D01*
X140796912Y-82187410D01*
X140856538Y-82221834D01*
X140900187Y-82247036D01*
X141015375Y-82277900D01*
X141015378Y-82277900D01*
X141134622Y-82277900D01*
X141134625Y-82277900D01*
X141249813Y-82247036D01*
X141353087Y-82187410D01*
X141437410Y-82103087D01*
X141497036Y-81999813D01*
X141527900Y-81884625D01*
X141527900Y-81840375D01*
X150322100Y-81840375D01*
X150322100Y-81959625D01*
X150339616Y-82024996D01*
X150352964Y-82074813D01*
X150352964Y-82074814D01*
X150412589Y-82178087D01*
X150496912Y-82262410D01*
X150523742Y-82277900D01*
X150600187Y-82322036D01*
X150715375Y-82352900D01*
X150715378Y-82352900D01*
X150834622Y-82352900D01*
X150834625Y-82352900D01*
X150949813Y-82322036D01*
X151053087Y-82262410D01*
X151137410Y-82178087D01*
X151197036Y-82074813D01*
X151227900Y-81959625D01*
X151227900Y-81840375D01*
X151197036Y-81725187D01*
X151175329Y-81687589D01*
X151137410Y-81621912D01*
X151053087Y-81537589D01*
X150949813Y-81477964D01*
X150834625Y-81447100D01*
X150715375Y-81447100D01*
X150628984Y-81470248D01*
X150600186Y-81477964D01*
X150600185Y-81477964D01*
X150496912Y-81537589D01*
X150412589Y-81621912D01*
X150352964Y-81725185D01*
X150352964Y-81725186D01*
X150352964Y-81725187D01*
X150322100Y-81840375D01*
X141527900Y-81840375D01*
X141527900Y-81765375D01*
X141497036Y-81650187D01*
X141497035Y-81650185D01*
X141437410Y-81546912D01*
X141353087Y-81462589D01*
X141249813Y-81402964D01*
X141134625Y-81372100D01*
X141015375Y-81372100D01*
X140928984Y-81395248D01*
X140900186Y-81402964D01*
X140900185Y-81402964D01*
X140796912Y-81462589D01*
X140712589Y-81546912D01*
X140652964Y-81650185D01*
X140652964Y-81650186D01*
X140652964Y-81650187D01*
X140622100Y-81765375D01*
X126875500Y-81765375D01*
X126875500Y-80165222D01*
X129497100Y-80165222D01*
X129497100Y-80362777D01*
X129535641Y-80556537D01*
X129535642Y-80556538D01*
X129597539Y-80705971D01*
X129611241Y-80739051D01*
X129720996Y-80903312D01*
X129720997Y-80903313D01*
X129721000Y-80903317D01*
X129860682Y-81042999D01*
X129860685Y-81043001D01*
X129860688Y-81043004D01*
X130024949Y-81152759D01*
X130207461Y-81228357D01*
X130207462Y-81228358D01*
X130207463Y-81228358D01*
X130207465Y-81228359D01*
X130337218Y-81254168D01*
X130401222Y-81266900D01*
X130401223Y-81266900D01*
X130598778Y-81266900D01*
X130646889Y-81257329D01*
X130792535Y-81228359D01*
X130975051Y-81152759D01*
X131139312Y-81043004D01*
X131279004Y-80903312D01*
X131388759Y-80739051D01*
X131464359Y-80556535D01*
X131482492Y-80465375D01*
X156997100Y-80465375D01*
X156997100Y-80584625D01*
X157027237Y-80697100D01*
X157027964Y-80699813D01*
X157027964Y-80699814D01*
X157087589Y-80803087D01*
X157171912Y-80887410D01*
X157199464Y-80903317D01*
X157275187Y-80947036D01*
X157390375Y-80977900D01*
X157390378Y-80977900D01*
X157509622Y-80977900D01*
X157509625Y-80977900D01*
X157624813Y-80947036D01*
X157728087Y-80887410D01*
X157780555Y-80834942D01*
X171707100Y-80834942D01*
X171707100Y-82595055D01*
X171707101Y-82595057D01*
X171715972Y-82639659D01*
X171749764Y-82690232D01*
X171749765Y-82690232D01*
X171749766Y-82690234D01*
X171800342Y-82724028D01*
X171844943Y-82732900D01*
X173905056Y-82732899D01*
X173949658Y-82724028D01*
X174000234Y-82690234D01*
X174034028Y-82639658D01*
X174042900Y-82595057D01*
X174042899Y-80834944D01*
X174034028Y-80790342D01*
X174000234Y-80739766D01*
X173949658Y-80705972D01*
X173949656Y-80705971D01*
X173905057Y-80697100D01*
X171844944Y-80697100D01*
X171844942Y-80697101D01*
X171800340Y-80705972D01*
X171749767Y-80739764D01*
X171715972Y-80790342D01*
X171715971Y-80790343D01*
X171707100Y-80834942D01*
X157780555Y-80834942D01*
X157812410Y-80803087D01*
X157817860Y-80793648D01*
X157817861Y-80793647D01*
X157868480Y-80705972D01*
X157872036Y-80699813D01*
X157902900Y-80584625D01*
X157902900Y-80465375D01*
X157872036Y-80350187D01*
X157872035Y-80350185D01*
X157812410Y-80246912D01*
X157728087Y-80162589D01*
X157624813Y-80102964D01*
X157509625Y-80072100D01*
X157390375Y-80072100D01*
X157303984Y-80095248D01*
X157275186Y-80102964D01*
X157275185Y-80102964D01*
X157171912Y-80162589D01*
X157087589Y-80246912D01*
X157027964Y-80350185D01*
X157027964Y-80350186D01*
X157017676Y-80388583D01*
X156997100Y-80465375D01*
X131482492Y-80465375D01*
X131502900Y-80362777D01*
X131502900Y-80165223D01*
X131464359Y-79971465D01*
X131388759Y-79788949D01*
X131279004Y-79624688D01*
X131279001Y-79624685D01*
X131278999Y-79624682D01*
X131139317Y-79485000D01*
X131139313Y-79484997D01*
X131139312Y-79484996D01*
X130997701Y-79390375D01*
X139297100Y-79390375D01*
X139297100Y-79509625D01*
X139322143Y-79603087D01*
X139327964Y-79624813D01*
X139327964Y-79624814D01*
X139387589Y-79728087D01*
X139471912Y-79812410D01*
X139531538Y-79846834D01*
X139575187Y-79872036D01*
X139690375Y-79902900D01*
X139690378Y-79902900D01*
X139809622Y-79902900D01*
X139809625Y-79902900D01*
X139924813Y-79872036D01*
X140028087Y-79812410D01*
X140112410Y-79728087D01*
X140172036Y-79624813D01*
X140202900Y-79509625D01*
X140202900Y-79390375D01*
X140172036Y-79275187D01*
X140166371Y-79265375D01*
X150322100Y-79265375D01*
X150322100Y-79384625D01*
X150348994Y-79484996D01*
X150352964Y-79499813D01*
X150352964Y-79499814D01*
X150412589Y-79603087D01*
X150496912Y-79687410D01*
X150556538Y-79721834D01*
X150600187Y-79747036D01*
X150715375Y-79777900D01*
X150715378Y-79777900D01*
X150834622Y-79777900D01*
X150834625Y-79777900D01*
X150949813Y-79747036D01*
X151053087Y-79687410D01*
X151137410Y-79603087D01*
X151197036Y-79499813D01*
X151212962Y-79440375D01*
X154172100Y-79440375D01*
X154172100Y-79559625D01*
X154189567Y-79624813D01*
X154202964Y-79674813D01*
X154202964Y-79674814D01*
X154262589Y-79778087D01*
X154346912Y-79862410D01*
X154406538Y-79896834D01*
X154450187Y-79922036D01*
X154565375Y-79952900D01*
X154565378Y-79952900D01*
X154684622Y-79952900D01*
X154684625Y-79952900D01*
X154799813Y-79922036D01*
X154903087Y-79862410D01*
X154987410Y-79778087D01*
X155047036Y-79674813D01*
X155077900Y-79559625D01*
X155077900Y-79440375D01*
X155047036Y-79325187D01*
X155047035Y-79325185D01*
X154987410Y-79221912D01*
X154903087Y-79137589D01*
X154799813Y-79077964D01*
X154787803Y-79074746D01*
X154684625Y-79047100D01*
X154565375Y-79047100D01*
X154478984Y-79070248D01*
X154450186Y-79077964D01*
X154450185Y-79077964D01*
X154346912Y-79137589D01*
X154262589Y-79221912D01*
X154202964Y-79325185D01*
X154202964Y-79325186D01*
X154202964Y-79325187D01*
X154172100Y-79440375D01*
X151212962Y-79440375D01*
X151227900Y-79384625D01*
X151227900Y-79265375D01*
X151197036Y-79150187D01*
X151196820Y-79149813D01*
X151137410Y-79046912D01*
X151053087Y-78962589D01*
X150971310Y-78915375D01*
X157947100Y-78915375D01*
X157947100Y-79034625D01*
X157974689Y-79137589D01*
X157977964Y-79149813D01*
X157977964Y-79149814D01*
X158037589Y-79253087D01*
X158121912Y-79337410D01*
X158181538Y-79371834D01*
X158225187Y-79397036D01*
X158340375Y-79427900D01*
X158340378Y-79427900D01*
X158459622Y-79427900D01*
X158459625Y-79427900D01*
X158574813Y-79397036D01*
X158678087Y-79337410D01*
X158762410Y-79253087D01*
X158822036Y-79149813D01*
X158852900Y-79034625D01*
X158852900Y-78915375D01*
X158826106Y-78815375D01*
X162615100Y-78815375D01*
X162615100Y-78934625D01*
X162645187Y-79046912D01*
X162645964Y-79049813D01*
X162645964Y-79049814D01*
X162705589Y-79153087D01*
X162789912Y-79237410D01*
X162849538Y-79271834D01*
X162893187Y-79297036D01*
X163008375Y-79327900D01*
X163008378Y-79327900D01*
X163127622Y-79327900D01*
X163127625Y-79327900D01*
X163242813Y-79297036D01*
X163346087Y-79237410D01*
X163430410Y-79153087D01*
X163431373Y-79151420D01*
X163432264Y-79150672D01*
X163433413Y-79149175D01*
X163433744Y-79149429D01*
X163470776Y-79118353D01*
X163522216Y-79118350D01*
X163559257Y-79149427D01*
X163559587Y-79149175D01*
X163560726Y-79150659D01*
X163561623Y-79151412D01*
X163561627Y-79151420D01*
X163562589Y-79153087D01*
X163646912Y-79237410D01*
X163706538Y-79271834D01*
X163750187Y-79297036D01*
X163865375Y-79327900D01*
X163865378Y-79327900D01*
X163984622Y-79327900D01*
X163984625Y-79327900D01*
X164099813Y-79297036D01*
X164203087Y-79237410D01*
X164287410Y-79153087D01*
X164332642Y-79074744D01*
X171707100Y-79074744D01*
X171707100Y-79275255D01*
X171746218Y-79471911D01*
X171746219Y-79471913D01*
X171822948Y-79657154D01*
X171822949Y-79657156D01*
X171934346Y-79823873D01*
X171934348Y-79823875D01*
X171934350Y-79823878D01*
X172076121Y-79965649D01*
X172076124Y-79965651D01*
X172076127Y-79965654D01*
X172242844Y-80077051D01*
X172428090Y-80153782D01*
X172546508Y-80177337D01*
X172624744Y-80192900D01*
X172624746Y-80192900D01*
X173125256Y-80192900D01*
X173190511Y-80179919D01*
X173321910Y-80153782D01*
X173507156Y-80077051D01*
X173673873Y-79965654D01*
X173815654Y-79823873D01*
X173927051Y-79657156D01*
X174003782Y-79471910D01*
X174038567Y-79297036D01*
X174042900Y-79275255D01*
X174042900Y-79074744D01*
X174020590Y-78962589D01*
X174003782Y-78878090D01*
X173927051Y-78692844D01*
X173815654Y-78526127D01*
X173815651Y-78526124D01*
X173815649Y-78526121D01*
X173673878Y-78384350D01*
X173673875Y-78384348D01*
X173673873Y-78384346D01*
X173507156Y-78272949D01*
X173328745Y-78199049D01*
X173321913Y-78196219D01*
X173321911Y-78196218D01*
X173125256Y-78157100D01*
X173125254Y-78157100D01*
X172624746Y-78157100D01*
X172624744Y-78157100D01*
X172428088Y-78196218D01*
X172428086Y-78196219D01*
X172242845Y-78272948D01*
X172076124Y-78384348D01*
X172076121Y-78384350D01*
X171934350Y-78526121D01*
X171934348Y-78526124D01*
X171822948Y-78692845D01*
X171746219Y-78878086D01*
X171746218Y-78878088D01*
X171707100Y-79074744D01*
X164332642Y-79074744D01*
X164347036Y-79049813D01*
X164377900Y-78934625D01*
X164377900Y-78815375D01*
X164347036Y-78700187D01*
X164342797Y-78692845D01*
X164287410Y-78596912D01*
X164203087Y-78512589D01*
X164099813Y-78452964D01*
X163984625Y-78422100D01*
X163865375Y-78422100D01*
X163778984Y-78445248D01*
X163750186Y-78452964D01*
X163750185Y-78452964D01*
X163646912Y-78512589D01*
X163562590Y-78596911D01*
X163561625Y-78598584D01*
X163560731Y-78599333D01*
X163559587Y-78600825D01*
X163559256Y-78600571D01*
X163522219Y-78631648D01*
X163470779Y-78631648D01*
X163433743Y-78600571D01*
X163433413Y-78600825D01*
X163432268Y-78599334D01*
X163431375Y-78598584D01*
X163430409Y-78596911D01*
X163346087Y-78512589D01*
X163242813Y-78452964D01*
X163127625Y-78422100D01*
X163008375Y-78422100D01*
X162921984Y-78445248D01*
X162893186Y-78452964D01*
X162893185Y-78452964D01*
X162789912Y-78512589D01*
X162705589Y-78596912D01*
X162645964Y-78700185D01*
X162645964Y-78700186D01*
X162645964Y-78700187D01*
X162615100Y-78815375D01*
X158826106Y-78815375D01*
X158822036Y-78800187D01*
X158822035Y-78800185D01*
X158762410Y-78696912D01*
X158678087Y-78612589D01*
X158574813Y-78552964D01*
X158459625Y-78522100D01*
X158340375Y-78522100D01*
X158253984Y-78545248D01*
X158225186Y-78552964D01*
X158225185Y-78552964D01*
X158121912Y-78612589D01*
X158037589Y-78696912D01*
X157977964Y-78800185D01*
X157977964Y-78800186D01*
X157973894Y-78815375D01*
X157947100Y-78915375D01*
X150971310Y-78915375D01*
X150949813Y-78902964D01*
X150834625Y-78872100D01*
X150715375Y-78872100D01*
X150628984Y-78895248D01*
X150600186Y-78902964D01*
X150600185Y-78902964D01*
X150496912Y-78962589D01*
X150412589Y-79046912D01*
X150352964Y-79150185D01*
X150352964Y-79150186D01*
X150352187Y-79153087D01*
X150322100Y-79265375D01*
X140166371Y-79265375D01*
X140163903Y-79261100D01*
X140112410Y-79171912D01*
X140028087Y-79087589D01*
X139924813Y-79027964D01*
X139809625Y-78997100D01*
X139690375Y-78997100D01*
X139603984Y-79020248D01*
X139575186Y-79027964D01*
X139575185Y-79027964D01*
X139471912Y-79087589D01*
X139387589Y-79171912D01*
X139327964Y-79275185D01*
X139327964Y-79275186D01*
X139327964Y-79275187D01*
X139297100Y-79390375D01*
X130997701Y-79390375D01*
X130975053Y-79375242D01*
X130975048Y-79375240D01*
X130854204Y-79325185D01*
X130792538Y-79299642D01*
X130792537Y-79299641D01*
X130598778Y-79261100D01*
X130598777Y-79261100D01*
X130401223Y-79261100D01*
X130401222Y-79261100D01*
X130207462Y-79299641D01*
X130207461Y-79299642D01*
X130024950Y-79375240D01*
X129860682Y-79485000D01*
X129721000Y-79624682D01*
X129611240Y-79788950D01*
X129535642Y-79971461D01*
X129535641Y-79971462D01*
X129497100Y-80165222D01*
X126875500Y-80165222D01*
X126875500Y-77625222D01*
X129497100Y-77625222D01*
X129497100Y-77822777D01*
X129535641Y-78016537D01*
X129535642Y-78016538D01*
X129610068Y-78196219D01*
X129611241Y-78199051D01*
X129720996Y-78363312D01*
X129720997Y-78363313D01*
X129721000Y-78363317D01*
X129860682Y-78502999D01*
X129860685Y-78503001D01*
X129860688Y-78503004D01*
X130024949Y-78612759D01*
X130207461Y-78688357D01*
X130207462Y-78688358D01*
X130207463Y-78688358D01*
X130207465Y-78688359D01*
X130337218Y-78714168D01*
X130401222Y-78726900D01*
X130401223Y-78726900D01*
X130598778Y-78726900D01*
X130646889Y-78717329D01*
X130792535Y-78688359D01*
X130975051Y-78612759D01*
X131139312Y-78503004D01*
X131279004Y-78363312D01*
X131388759Y-78199051D01*
X131464359Y-78016535D01*
X131502900Y-77822777D01*
X131502900Y-77625223D01*
X131464359Y-77431465D01*
X131388759Y-77248949D01*
X131279004Y-77084688D01*
X131278998Y-77084682D01*
X131278998Y-77084681D01*
X131234692Y-77040375D01*
X132847100Y-77040375D01*
X132847100Y-77159625D01*
X132871034Y-77248949D01*
X132877964Y-77274813D01*
X132877964Y-77274814D01*
X132937589Y-77378087D01*
X133021912Y-77462410D01*
X133048742Y-77477900D01*
X133125187Y-77522036D01*
X133240375Y-77552900D01*
X133240378Y-77552900D01*
X133359622Y-77552900D01*
X133359625Y-77552900D01*
X133474813Y-77522036D01*
X133578087Y-77462410D01*
X133625122Y-77415375D01*
X133872100Y-77415375D01*
X133872100Y-77534625D01*
X133876997Y-77552900D01*
X133902964Y-77649813D01*
X133902964Y-77649814D01*
X133962589Y-77753087D01*
X134046912Y-77837410D01*
X134106538Y-77871834D01*
X134150187Y-77897036D01*
X134265375Y-77927900D01*
X134265378Y-77927900D01*
X134384622Y-77927900D01*
X134384625Y-77927900D01*
X134499813Y-77897036D01*
X134603087Y-77837410D01*
X134687410Y-77753087D01*
X134747036Y-77649813D01*
X134776359Y-77540375D01*
X140572100Y-77540375D01*
X140572100Y-77659625D01*
X140597143Y-77753087D01*
X140602964Y-77774813D01*
X140602964Y-77774814D01*
X140662589Y-77878087D01*
X140746912Y-77962410D01*
X140806538Y-77996834D01*
X140850187Y-78022036D01*
X140965375Y-78052900D01*
X140965378Y-78052900D01*
X141084622Y-78052900D01*
X141084625Y-78052900D01*
X141199813Y-78022036D01*
X141303087Y-77962410D01*
X141387410Y-77878087D01*
X141447036Y-77774813D01*
X141477900Y-77659625D01*
X141477900Y-77540375D01*
X141447036Y-77425187D01*
X141425225Y-77387410D01*
X141387410Y-77321912D01*
X141303087Y-77237589D01*
X141199813Y-77177964D01*
X141084625Y-77147100D01*
X140965375Y-77147100D01*
X140878984Y-77170248D01*
X140850186Y-77177964D01*
X140850185Y-77177964D01*
X140746912Y-77237589D01*
X140662589Y-77321912D01*
X140602964Y-77425185D01*
X140602964Y-77425186D01*
X140601282Y-77431465D01*
X140572100Y-77540375D01*
X134776359Y-77540375D01*
X134777900Y-77534625D01*
X134777900Y-77415375D01*
X134747036Y-77300187D01*
X134717454Y-77248950D01*
X134687410Y-77196912D01*
X134603087Y-77112589D01*
X134499813Y-77052964D01*
X134384625Y-77022100D01*
X134265375Y-77022100D01*
X134178984Y-77045248D01*
X134150186Y-77052964D01*
X134150185Y-77052964D01*
X134046912Y-77112589D01*
X133962589Y-77196912D01*
X133902964Y-77300185D01*
X133902964Y-77300186D01*
X133902964Y-77300187D01*
X133872100Y-77415375D01*
X133625122Y-77415375D01*
X133662410Y-77378087D01*
X133665438Y-77372844D01*
X133665438Y-77372843D01*
X133707386Y-77300187D01*
X133722036Y-77274813D01*
X133752900Y-77159625D01*
X133752900Y-77040375D01*
X133732804Y-76965375D01*
X156297100Y-76965375D01*
X156297100Y-77084625D01*
X156313840Y-77147100D01*
X156327964Y-77199813D01*
X156327964Y-77199814D01*
X156387589Y-77303087D01*
X156471912Y-77387410D01*
X156531538Y-77421834D01*
X156575187Y-77447036D01*
X156690375Y-77477900D01*
X156690378Y-77477900D01*
X156809622Y-77477900D01*
X156809625Y-77477900D01*
X156924813Y-77447036D01*
X157028087Y-77387410D01*
X157112410Y-77303087D01*
X157172036Y-77199813D01*
X157202900Y-77084625D01*
X157202900Y-76965375D01*
X157172036Y-76850187D01*
X157155711Y-76821912D01*
X157112410Y-76746912D01*
X157028087Y-76662589D01*
X156924813Y-76602964D01*
X156809625Y-76572100D01*
X156690375Y-76572100D01*
X156603984Y-76595248D01*
X156575186Y-76602964D01*
X156575185Y-76602964D01*
X156471912Y-76662589D01*
X156387589Y-76746912D01*
X156327964Y-76850185D01*
X156327964Y-76850186D01*
X156327964Y-76850187D01*
X156297100Y-76965375D01*
X133732804Y-76965375D01*
X133722036Y-76925187D01*
X133705783Y-76897036D01*
X133662410Y-76821912D01*
X133578087Y-76737589D01*
X133474813Y-76677964D01*
X133359625Y-76647100D01*
X133240375Y-76647100D01*
X133153984Y-76670248D01*
X133125186Y-76677964D01*
X133125185Y-76677964D01*
X133021912Y-76737589D01*
X132937589Y-76821912D01*
X132877964Y-76925185D01*
X132877964Y-76925186D01*
X132877964Y-76925187D01*
X132847100Y-77040375D01*
X131234692Y-77040375D01*
X131139317Y-76945000D01*
X131139313Y-76944997D01*
X131139312Y-76944996D01*
X130975051Y-76835241D01*
X130975049Y-76835240D01*
X130792538Y-76759642D01*
X130792537Y-76759641D01*
X130598778Y-76721100D01*
X130598777Y-76721100D01*
X130401223Y-76721100D01*
X130401222Y-76721100D01*
X130207462Y-76759641D01*
X130207461Y-76759642D01*
X130024950Y-76835240D01*
X129860682Y-76945000D01*
X129721000Y-77084682D01*
X129611240Y-77248950D01*
X129535642Y-77431461D01*
X129535641Y-77431462D01*
X129497100Y-77625222D01*
X126875500Y-77625222D01*
X126875500Y-76415375D01*
X148422100Y-76415375D01*
X148422100Y-76534625D01*
X148440411Y-76602964D01*
X148452964Y-76649813D01*
X148452964Y-76649814D01*
X148512589Y-76753087D01*
X148596912Y-76837410D01*
X148619041Y-76850186D01*
X148700187Y-76897036D01*
X148815375Y-76927900D01*
X148815378Y-76927900D01*
X148934622Y-76927900D01*
X148934625Y-76927900D01*
X149049813Y-76897036D01*
X149153087Y-76837410D01*
X149237410Y-76753087D01*
X149297036Y-76649813D01*
X149327900Y-76534625D01*
X149327900Y-76415375D01*
X149297036Y-76300187D01*
X149297035Y-76300185D01*
X149237410Y-76196912D01*
X149153087Y-76112589D01*
X149049813Y-76052964D01*
X148934625Y-76022100D01*
X148815375Y-76022100D01*
X148728984Y-76045248D01*
X148700186Y-76052964D01*
X148700185Y-76052964D01*
X148596912Y-76112589D01*
X148512589Y-76196912D01*
X148452964Y-76300185D01*
X148452964Y-76300186D01*
X148452964Y-76300187D01*
X148422100Y-76415375D01*
X126875500Y-76415375D01*
X126875500Y-75777875D01*
X150134600Y-75777875D01*
X150134600Y-75897125D01*
X150165464Y-76012313D01*
X150165464Y-76012314D01*
X150225089Y-76115587D01*
X150309412Y-76199910D01*
X150369038Y-76234334D01*
X150412687Y-76259536D01*
X150527875Y-76290400D01*
X150527878Y-76290400D01*
X150647122Y-76290400D01*
X150647125Y-76290400D01*
X150762313Y-76259536D01*
X150865587Y-76199910D01*
X150949910Y-76115587D01*
X151009536Y-76012313D01*
X151040400Y-75897125D01*
X151040400Y-75777875D01*
X151009536Y-75662687D01*
X151009535Y-75662685D01*
X150949910Y-75559412D01*
X150865587Y-75475089D01*
X150762313Y-75415464D01*
X150647125Y-75384600D01*
X150527875Y-75384600D01*
X150441484Y-75407748D01*
X150412686Y-75415464D01*
X150412685Y-75415464D01*
X150309412Y-75475089D01*
X150225089Y-75559412D01*
X150165464Y-75662685D01*
X150165464Y-75662686D01*
X150165464Y-75662687D01*
X150134600Y-75777875D01*
X126875500Y-75777875D01*
X126875500Y-75165375D01*
X145172100Y-75165375D01*
X145172100Y-75284625D01*
X145196266Y-75374814D01*
X145202964Y-75399813D01*
X145202964Y-75399814D01*
X145262589Y-75503087D01*
X145346912Y-75587410D01*
X145406538Y-75621834D01*
X145450187Y-75647036D01*
X145565375Y-75677900D01*
X145565378Y-75677900D01*
X145684622Y-75677900D01*
X145684625Y-75677900D01*
X145799813Y-75647036D01*
X145903087Y-75587410D01*
X145987410Y-75503087D01*
X146047036Y-75399813D01*
X146077900Y-75284625D01*
X146077900Y-75165375D01*
X146071201Y-75140375D01*
X146297100Y-75140375D01*
X146297100Y-75259625D01*
X146303798Y-75284622D01*
X146327964Y-75374813D01*
X146327964Y-75374814D01*
X146387589Y-75478087D01*
X146471912Y-75562410D01*
X146531538Y-75596834D01*
X146575187Y-75622036D01*
X146690375Y-75652900D01*
X146690378Y-75652900D01*
X146809622Y-75652900D01*
X146809625Y-75652900D01*
X146924813Y-75622036D01*
X147028087Y-75562410D01*
X147112410Y-75478087D01*
X147172036Y-75374813D01*
X147172036Y-75374812D01*
X147174500Y-75370545D01*
X147175790Y-75371290D01*
X147206341Y-75337935D01*
X147257339Y-75331209D01*
X147300729Y-75358837D01*
X147306204Y-75367028D01*
X147312589Y-75378087D01*
X147396912Y-75462410D01*
X147456538Y-75496834D01*
X147500187Y-75522036D01*
X147615375Y-75552900D01*
X147615378Y-75552900D01*
X147734622Y-75552900D01*
X147734625Y-75552900D01*
X147849813Y-75522036D01*
X147953087Y-75462410D01*
X148037410Y-75378087D01*
X148097036Y-75274813D01*
X148127900Y-75159625D01*
X148127900Y-75040375D01*
X148121201Y-75015375D01*
X156272100Y-75015375D01*
X156272100Y-75134625D01*
X156280340Y-75165377D01*
X156302964Y-75249813D01*
X156302964Y-75249814D01*
X156362589Y-75353087D01*
X156446912Y-75437410D01*
X156506538Y-75471834D01*
X156550187Y-75497036D01*
X156665375Y-75527900D01*
X156665378Y-75527900D01*
X156784622Y-75527900D01*
X156784625Y-75527900D01*
X156899813Y-75497036D01*
X157003087Y-75437410D01*
X157087410Y-75353087D01*
X157147036Y-75249813D01*
X157177900Y-75134625D01*
X157177900Y-75015375D01*
X157147036Y-74900187D01*
X157147035Y-74900185D01*
X157087410Y-74796912D01*
X157003087Y-74712589D01*
X156899813Y-74652964D01*
X156784625Y-74622100D01*
X156665375Y-74622100D01*
X156578984Y-74645248D01*
X156550186Y-74652964D01*
X156550185Y-74652964D01*
X156446912Y-74712589D01*
X156362589Y-74796912D01*
X156302964Y-74900185D01*
X156302964Y-74900186D01*
X156302964Y-74900187D01*
X156272100Y-75015375D01*
X148121201Y-75015375D01*
X148097036Y-74925187D01*
X148082602Y-74900187D01*
X148037410Y-74821912D01*
X147953087Y-74737589D01*
X147849813Y-74677964D01*
X147734625Y-74647100D01*
X147615375Y-74647100D01*
X147528984Y-74670248D01*
X147500186Y-74677964D01*
X147500185Y-74677964D01*
X147396912Y-74737589D01*
X147312589Y-74821912D01*
X147250500Y-74929455D01*
X147249213Y-74928712D01*
X147218635Y-74962076D01*
X147167635Y-74968785D01*
X147124254Y-74941141D01*
X147118794Y-74932969D01*
X147112410Y-74921912D01*
X147028087Y-74837589D01*
X146924813Y-74777964D01*
X146809625Y-74747100D01*
X146690375Y-74747100D01*
X146603984Y-74770248D01*
X146575186Y-74777964D01*
X146575185Y-74777964D01*
X146471912Y-74837589D01*
X146387589Y-74921912D01*
X146327964Y-75025185D01*
X146327964Y-75025186D01*
X146327964Y-75025187D01*
X146297100Y-75140375D01*
X146071201Y-75140375D01*
X146047036Y-75050187D01*
X146041371Y-75040375D01*
X145987410Y-74946912D01*
X145903087Y-74862589D01*
X145799813Y-74802964D01*
X145684625Y-74772100D01*
X145565375Y-74772100D01*
X145494088Y-74791201D01*
X145450186Y-74802964D01*
X145450185Y-74802964D01*
X145346912Y-74862589D01*
X145262589Y-74946912D01*
X145202964Y-75050185D01*
X145202964Y-75050186D01*
X145202964Y-75050187D01*
X145172100Y-75165375D01*
X126875500Y-75165375D01*
X126875500Y-74310695D01*
X135097100Y-74310695D01*
X135097100Y-74439305D01*
X135122191Y-74565444D01*
X135171408Y-74684264D01*
X135242860Y-74791199D01*
X135242862Y-74791201D01*
X135242864Y-74791204D01*
X135333795Y-74882135D01*
X135333798Y-74882137D01*
X135333801Y-74882140D01*
X135440736Y-74953592D01*
X135559556Y-75002809D01*
X135622729Y-75015375D01*
X135685693Y-75027900D01*
X135685695Y-75027900D01*
X135814307Y-75027900D01*
X135856351Y-75019536D01*
X135940444Y-75002809D01*
X136059264Y-74953592D01*
X136166199Y-74882140D01*
X136257140Y-74791199D01*
X136328592Y-74684264D01*
X136377809Y-74565444D01*
X136402900Y-74439305D01*
X136402900Y-74310695D01*
X136377809Y-74184556D01*
X136328592Y-74065736D01*
X136257140Y-73958801D01*
X136257137Y-73958798D01*
X136257135Y-73958795D01*
X136166204Y-73867864D01*
X136166201Y-73867862D01*
X136166199Y-73867860D01*
X136059264Y-73796408D01*
X135940444Y-73747191D01*
X135940441Y-73747190D01*
X135940440Y-73747190D01*
X135814307Y-73722100D01*
X135814305Y-73722100D01*
X135685695Y-73722100D01*
X135685693Y-73722100D01*
X135559559Y-73747190D01*
X135559556Y-73747191D01*
X135440737Y-73796407D01*
X135333798Y-73867862D01*
X135333795Y-73867864D01*
X135242864Y-73958795D01*
X135242862Y-73958798D01*
X135171407Y-74065737D01*
X135122191Y-74184556D01*
X135097100Y-74310695D01*
X126875500Y-74310695D01*
X126875500Y-69985693D01*
X146222100Y-69985693D01*
X146222100Y-70114306D01*
X146242670Y-70217719D01*
X146247191Y-70240444D01*
X146296408Y-70359264D01*
X146367860Y-70466199D01*
X146367862Y-70466201D01*
X146367864Y-70466204D01*
X146458795Y-70557135D01*
X146458798Y-70557137D01*
X146458801Y-70557140D01*
X146565736Y-70628592D01*
X146684556Y-70677809D01*
X146760239Y-70692863D01*
X146810693Y-70702900D01*
X146810695Y-70702900D01*
X146939307Y-70702900D01*
X146981351Y-70694536D01*
X147065444Y-70677809D01*
X147184264Y-70628592D01*
X147291199Y-70557140D01*
X147382140Y-70466199D01*
X147382690Y-70465377D01*
X147382691Y-70465375D01*
X155497100Y-70465375D01*
X155497100Y-70584625D01*
X155508881Y-70628592D01*
X155527964Y-70699813D01*
X155527964Y-70699814D01*
X155587589Y-70803087D01*
X155671912Y-70887410D01*
X155731538Y-70921834D01*
X155775187Y-70947036D01*
X155890375Y-70977900D01*
X155890378Y-70977900D01*
X156009622Y-70977900D01*
X156009625Y-70977900D01*
X156124813Y-70947036D01*
X156228087Y-70887410D01*
X156312410Y-70803087D01*
X156372036Y-70699813D01*
X156402900Y-70584625D01*
X156402900Y-70465375D01*
X156372036Y-70350187D01*
X156372035Y-70350185D01*
X156324803Y-70268377D01*
X156315870Y-70217719D01*
X156341590Y-70173170D01*
X156389928Y-70155577D01*
X156427528Y-70165652D01*
X156525187Y-70222036D01*
X156640375Y-70252900D01*
X156640378Y-70252900D01*
X156759622Y-70252900D01*
X156759625Y-70252900D01*
X156874813Y-70222036D01*
X156978087Y-70162410D01*
X157062410Y-70078087D01*
X157122036Y-69974813D01*
X157152900Y-69859625D01*
X157152900Y-69740375D01*
X157122036Y-69625187D01*
X157122035Y-69625185D01*
X157062410Y-69521912D01*
X156978087Y-69437589D01*
X156874813Y-69377964D01*
X156759625Y-69347100D01*
X156640375Y-69347100D01*
X156553984Y-69370248D01*
X156525186Y-69377964D01*
X156525185Y-69377964D01*
X156421912Y-69437589D01*
X156337589Y-69521912D01*
X156277964Y-69625185D01*
X156277964Y-69625186D01*
X156275657Y-69633798D01*
X156247100Y-69740375D01*
X156247100Y-69859625D01*
X156277964Y-69974813D01*
X156277964Y-69974814D01*
X156325196Y-70056622D01*
X156334128Y-70107281D01*
X156308408Y-70151829D01*
X156260071Y-70169422D01*
X156222471Y-70159347D01*
X156124813Y-70102964D01*
X156009625Y-70072100D01*
X155890375Y-70072100D01*
X155803984Y-70095248D01*
X155775186Y-70102964D01*
X155775185Y-70102964D01*
X155671912Y-70162589D01*
X155587589Y-70246912D01*
X155527964Y-70350185D01*
X155527964Y-70350186D01*
X155527964Y-70350187D01*
X155497100Y-70465375D01*
X147382691Y-70465375D01*
X147413886Y-70418688D01*
X147413900Y-70418667D01*
X147453592Y-70359264D01*
X147502809Y-70240444D01*
X147527900Y-70114305D01*
X147527900Y-69985695D01*
X147525735Y-69974813D01*
X147517863Y-69935239D01*
X147502809Y-69859556D01*
X147453592Y-69740736D01*
X147382140Y-69633801D01*
X147382137Y-69633798D01*
X147382135Y-69633795D01*
X147291204Y-69542864D01*
X147291201Y-69542862D01*
X147291199Y-69542860D01*
X147184264Y-69471408D01*
X147065444Y-69422191D01*
X147065441Y-69422190D01*
X147065440Y-69422190D01*
X146939307Y-69397100D01*
X146939305Y-69397100D01*
X146810695Y-69397100D01*
X146810693Y-69397100D01*
X146684559Y-69422190D01*
X146684556Y-69422191D01*
X146565737Y-69471407D01*
X146458798Y-69542862D01*
X146458795Y-69542864D01*
X146367864Y-69633795D01*
X146367862Y-69633798D01*
X146296407Y-69740737D01*
X146247191Y-69859556D01*
X146247190Y-69859559D01*
X146222100Y-69985693D01*
X126875500Y-69985693D01*
X126875500Y-68290375D01*
X150997100Y-68290375D01*
X150997100Y-68409625D01*
X151027964Y-68524813D01*
X151027964Y-68524814D01*
X151087589Y-68628087D01*
X151171912Y-68712410D01*
X151231538Y-68746834D01*
X151275187Y-68772036D01*
X151390375Y-68802900D01*
X151390378Y-68802900D01*
X151509622Y-68802900D01*
X151509625Y-68802900D01*
X151624813Y-68772036D01*
X151728087Y-68712410D01*
X151812410Y-68628087D01*
X151872036Y-68524813D01*
X151902900Y-68409625D01*
X151902900Y-68290375D01*
X151872036Y-68175187D01*
X151872035Y-68175185D01*
X151812410Y-68071912D01*
X151728087Y-67987589D01*
X151624813Y-67927964D01*
X151509625Y-67897100D01*
X151390375Y-67897100D01*
X151303984Y-67920248D01*
X151275186Y-67927964D01*
X151275185Y-67927964D01*
X151171912Y-67987589D01*
X151087589Y-68071912D01*
X151027964Y-68175185D01*
X151027964Y-68175186D01*
X151027964Y-68175187D01*
X150997100Y-68290375D01*
X126875500Y-68290375D01*
X126875500Y-67465375D01*
X151772100Y-67465375D01*
X151772100Y-67584625D01*
X151802964Y-67699813D01*
X151802964Y-67699814D01*
X151862589Y-67803087D01*
X151946912Y-67887410D01*
X151963696Y-67897100D01*
X152050187Y-67947036D01*
X152165375Y-67977900D01*
X152165378Y-67977900D01*
X152284622Y-67977900D01*
X152284625Y-67977900D01*
X152399813Y-67947036D01*
X152503087Y-67887410D01*
X152587410Y-67803087D01*
X152647036Y-67699813D01*
X152677900Y-67584625D01*
X152677900Y-67465375D01*
X152647036Y-67350187D01*
X152647035Y-67350185D01*
X152587410Y-67246912D01*
X152503087Y-67162589D01*
X152399813Y-67102964D01*
X152284625Y-67072100D01*
X152165375Y-67072100D01*
X152078984Y-67095248D01*
X152050186Y-67102964D01*
X152050185Y-67102964D01*
X151946912Y-67162589D01*
X151862589Y-67246912D01*
X151802964Y-67350185D01*
X151802964Y-67350186D01*
X151802964Y-67350187D01*
X151772100Y-67465375D01*
X126875500Y-67465375D01*
X126875500Y-66210695D01*
X134997100Y-66210695D01*
X134997100Y-66339305D01*
X135022191Y-66465444D01*
X135071408Y-66584264D01*
X135142860Y-66691199D01*
X135142862Y-66691201D01*
X135142864Y-66691204D01*
X135233795Y-66782135D01*
X135233798Y-66782137D01*
X135233801Y-66782140D01*
X135340736Y-66853592D01*
X135459556Y-66902809D01*
X135535239Y-66917863D01*
X135585693Y-66927900D01*
X135585695Y-66927900D01*
X135714307Y-66927900D01*
X135756351Y-66919536D01*
X135840444Y-66902809D01*
X135959264Y-66853592D01*
X136066199Y-66782140D01*
X136157140Y-66691199D01*
X136228592Y-66584264D01*
X136277809Y-66465444D01*
X136302900Y-66339305D01*
X136302900Y-66210695D01*
X136277809Y-66084556D01*
X136228592Y-65965736D01*
X136157140Y-65858801D01*
X136157137Y-65858798D01*
X136157135Y-65858795D01*
X136066204Y-65767864D01*
X136066201Y-65767862D01*
X136066199Y-65767860D01*
X135959264Y-65696408D01*
X135959263Y-65696407D01*
X135959261Y-65696406D01*
X135919463Y-65679922D01*
X135840444Y-65647191D01*
X135840441Y-65647190D01*
X135840440Y-65647190D01*
X135714307Y-65622100D01*
X135714305Y-65622100D01*
X135585695Y-65622100D01*
X135585693Y-65622100D01*
X135459559Y-65647190D01*
X135459556Y-65647191D01*
X135340737Y-65696407D01*
X135233798Y-65767862D01*
X135233795Y-65767864D01*
X135142864Y-65858795D01*
X135142862Y-65858798D01*
X135071407Y-65965737D01*
X135022191Y-66084556D01*
X135022190Y-66084559D01*
X135013569Y-66127900D01*
X134997100Y-66210695D01*
X126875500Y-66210695D01*
X126875500Y-65615375D01*
X158247100Y-65615375D01*
X158247100Y-65734625D01*
X158277964Y-65849813D01*
X158277964Y-65849814D01*
X158337589Y-65953087D01*
X158421912Y-66037410D01*
X158481538Y-66071834D01*
X158525187Y-66097036D01*
X158640375Y-66127900D01*
X158640378Y-66127900D01*
X158759622Y-66127900D01*
X158759625Y-66127900D01*
X158874813Y-66097036D01*
X158978087Y-66037410D01*
X159062410Y-65953087D01*
X159122036Y-65849813D01*
X159152900Y-65734625D01*
X159152900Y-65615375D01*
X159122036Y-65500187D01*
X159122035Y-65500185D01*
X159062410Y-65396912D01*
X158978087Y-65312589D01*
X158874813Y-65252964D01*
X158759625Y-65222100D01*
X158640375Y-65222100D01*
X158553984Y-65245248D01*
X158525186Y-65252964D01*
X158525185Y-65252964D01*
X158421912Y-65312589D01*
X158337589Y-65396912D01*
X158277964Y-65500185D01*
X158277964Y-65500186D01*
X158277964Y-65500187D01*
X158247100Y-65615375D01*
X126875500Y-65615375D01*
X126875500Y-64675700D01*
X126893093Y-64627362D01*
X126937642Y-64601642D01*
X126950700Y-64600500D01*
X175799300Y-64600500D01*
X175847638Y-64618093D01*
G37*
%TD.AperFunction*%
%TD*%
M02*
