%TF.GenerationSoftware,KiCad,Pcbnew,9.0.0*%
%TF.CreationDate,2025-03-19T13:45:40+03:00*%
%TF.ProjectId,End_striyel Sens_r Mod_l_,456e64fc-7374-4726-9979-656c2053656e,rev?*%
%TF.SameCoordinates,Original*%
%TF.FileFunction,Paste,Bot*%
%TF.FilePolarity,Positive*%
%FSLAX46Y46*%
G04 Gerber Fmt 4.6, Leading zero omitted, Abs format (unit mm)*
G04 Created by KiCad (PCBNEW 9.0.0) date 2025-03-19 13:45:40*
%MOMM*%
%LPD*%
G01*
G04 APERTURE LIST*
G04 Aperture macros list*
%AMRoundRect*
0 Rectangle with rounded corners*
0 $1 Rounding radius*
0 $2 $3 $4 $5 $6 $7 $8 $9 X,Y pos of 4 corners*
0 Add a 4 corners polygon primitive as box body*
4,1,4,$2,$3,$4,$5,$6,$7,$8,$9,$2,$3,0*
0 Add four circle primitives for the rounded corners*
1,1,$1+$1,$2,$3*
1,1,$1+$1,$4,$5*
1,1,$1+$1,$6,$7*
1,1,$1+$1,$8,$9*
0 Add four rect primitives between the rounded corners*
20,1,$1+$1,$2,$3,$4,$5,0*
20,1,$1+$1,$4,$5,$6,$7,0*
20,1,$1+$1,$6,$7,$8,$9,0*
20,1,$1+$1,$8,$9,$2,$3,0*%
G04 Aperture macros list end*
%ADD10RoundRect,0.250000X0.300000X1.600000X-0.300000X1.600000X-0.300000X-1.600000X0.300000X-1.600000X0*%
%ADD11RoundRect,0.225000X-0.250000X0.225000X-0.250000X-0.225000X0.250000X-0.225000X0.250000X0.225000X0*%
%ADD12RoundRect,0.225000X0.250000X-0.225000X0.250000X0.225000X-0.250000X0.225000X-0.250000X-0.225000X0*%
%ADD13RoundRect,0.200000X-0.200000X-0.275000X0.200000X-0.275000X0.200000X0.275000X-0.200000X0.275000X0*%
%ADD14RoundRect,0.225000X-0.225000X-0.250000X0.225000X-0.250000X0.225000X0.250000X-0.225000X0.250000X0*%
%ADD15RoundRect,0.200000X0.200000X0.275000X-0.200000X0.275000X-0.200000X-0.275000X0.200000X-0.275000X0*%
%ADD16RoundRect,0.150000X-0.512500X-0.150000X0.512500X-0.150000X0.512500X0.150000X-0.512500X0.150000X0*%
%ADD17RoundRect,0.150000X0.512500X0.150000X-0.512500X0.150000X-0.512500X-0.150000X0.512500X-0.150000X0*%
%ADD18RoundRect,0.250000X-0.300000X-1.600000X0.300000X-1.600000X0.300000X1.600000X-0.300000X1.600000X0*%
G04 APERTURE END LIST*
D10*
%TO.C,L2*%
X152875000Y-99850000D03*
X149875000Y-99850000D03*
%TD*%
D11*
%TO.C,C2*%
X157375000Y-65725000D03*
X157375000Y-67275000D03*
%TD*%
D12*
%TO.C,C13*%
X146125000Y-96125000D03*
X146125000Y-94575000D03*
%TD*%
D13*
%TO.C,R4*%
X150300000Y-87200000D03*
X151950000Y-87200000D03*
%TD*%
%TO.C,R7*%
X160500000Y-77150000D03*
X162150000Y-77150000D03*
%TD*%
D11*
%TO.C,C5*%
X160750000Y-87500000D03*
X160750000Y-89050000D03*
%TD*%
D14*
%TO.C,C9*%
X155300000Y-82625000D03*
X156850000Y-82625000D03*
%TD*%
D15*
%TO.C,R8*%
X162150000Y-75475000D03*
X160500000Y-75475000D03*
%TD*%
D16*
%TO.C,U3*%
X148850000Y-94450000D03*
X148850000Y-93500000D03*
X148850000Y-92550000D03*
X151125000Y-92550000D03*
X151125000Y-93500000D03*
X151125000Y-94450000D03*
%TD*%
D17*
%TO.C,U2*%
X157200000Y-85225000D03*
X157200000Y-86175000D03*
X157200000Y-87125000D03*
X154925000Y-87125000D03*
X154925000Y-86175000D03*
X154925000Y-85225000D03*
%TD*%
D11*
%TO.C,C15*%
X144025000Y-94475000D03*
X144025000Y-96025000D03*
%TD*%
D12*
%TO.C,C8*%
X146125000Y-92525000D03*
X146125000Y-90975000D03*
%TD*%
D18*
%TO.C,L1*%
X159350000Y-82600000D03*
X162350000Y-82600000D03*
%TD*%
D15*
%TO.C,R5*%
X151950000Y-85650000D03*
X150300000Y-85650000D03*
%TD*%
D11*
%TO.C,C11*%
X164200000Y-81550000D03*
X164200000Y-83100000D03*
%TD*%
%TO.C,C12*%
X165850000Y-81550000D03*
X165850000Y-83100000D03*
%TD*%
D14*
%TO.C,C10*%
X153225000Y-94450000D03*
X154775000Y-94450000D03*
%TD*%
D15*
%TO.C,R6*%
X162150000Y-78875000D03*
X160500000Y-78875000D03*
%TD*%
D14*
%TO.C,C14*%
X160550000Y-73700000D03*
X162100000Y-73700000D03*
%TD*%
D11*
%TO.C,C6*%
X159150000Y-87500000D03*
X159150000Y-89050000D03*
%TD*%
D12*
%TO.C,C7*%
X144025000Y-92525000D03*
X144025000Y-90975000D03*
%TD*%
M02*
