%TF.GenerationSoftware,KiCad,Pcbnew,9.0.0*%
%TF.CreationDate,2025-03-19T13:45:40+03:00*%
%TF.ProjectId,End_striyel Sens_r Mod_l_,456e64fc-7374-4726-9979-656c2053656e,rev?*%
%TF.SameCoordinates,Original*%
%TF.FileFunction,Soldermask,Top*%
%TF.FilePolarity,Negative*%
%FSLAX46Y46*%
G04 Gerber Fmt 4.6, Leading zero omitted, Abs format (unit mm)*
G04 Created by KiCad (PCBNEW 9.0.0) date 2025-03-19 13:45:40*
%MOMM*%
%LPD*%
G01*
G04 APERTURE LIST*
G04 Aperture macros list*
%AMRoundRect*
0 Rectangle with rounded corners*
0 $1 Rounding radius*
0 $2 $3 $4 $5 $6 $7 $8 $9 X,Y pos of 4 corners*
0 Add a 4 corners polygon primitive as box body*
4,1,4,$2,$3,$4,$5,$6,$7,$8,$9,$2,$3,0*
0 Add four circle primitives for the rounded corners*
1,1,$1+$1,$2,$3*
1,1,$1+$1,$4,$5*
1,1,$1+$1,$6,$7*
1,1,$1+$1,$8,$9*
0 Add four rect primitives between the rounded corners*
20,1,$1+$1,$2,$3,$4,$5,0*
20,1,$1+$1,$4,$5,$6,$7,0*
20,1,$1+$1,$6,$7,$8,$9,0*
20,1,$1+$1,$8,$9,$2,$3,0*%
%AMOutline4P*
0 Free polygon, 4 corners , with rotation*
0 The origin of the aperture is its center*
0 number of corners: always 4*
0 $1 to $8 corner X, Y*
0 $9 Rotation angle, in degrees counterclockwise*
0 create outline with 4 corners*
4,1,4,$1,$2,$3,$4,$5,$6,$7,$8,$1,$2,$9*%
G04 Aperture macros list end*
%ADD10C,3.600000*%
%ADD11C,5.700000*%
%ADD12RoundRect,0.225000X0.250000X-0.225000X0.250000X0.225000X-0.250000X0.225000X-0.250000X-0.225000X0*%
%ADD13RoundRect,0.225000X-0.250000X0.225000X-0.250000X-0.225000X0.250000X-0.225000X0.250000X0.225000X0*%
%ADD14RoundRect,0.250000X0.650000X-1.000000X0.650000X1.000000X-0.650000X1.000000X-0.650000X-1.000000X0*%
%ADD15RoundRect,0.150000X-0.150000X0.825000X-0.150000X-0.825000X0.150000X-0.825000X0.150000X0.825000X0*%
%ADD16RoundRect,0.150000X-0.150000X0.587500X-0.150000X-0.587500X0.150000X-0.587500X0.150000X0.587500X0*%
%ADD17R,1.000000X1.250000*%
%ADD18RoundRect,0.200000X-0.275000X0.200000X-0.275000X-0.200000X0.275000X-0.200000X0.275000X0.200000X0*%
%ADD19RoundRect,0.225000X0.225000X0.250000X-0.225000X0.250000X-0.225000X-0.250000X0.225000X-0.250000X0*%
%ADD20RoundRect,0.200000X0.275000X-0.200000X0.275000X0.200000X-0.275000X0.200000X-0.275000X-0.200000X0*%
%ADD21RoundRect,0.150000X0.150000X-0.587500X0.150000X0.587500X-0.150000X0.587500X-0.150000X-0.587500X0*%
%ADD22R,1.500000X0.900000*%
%ADD23C,0.600000*%
%ADD24R,2.900000X2.900000*%
%ADD25R,1.700000X1.700000*%
%ADD26O,1.700000X1.700000*%
%ADD27C,4.000000*%
%ADD28R,1.600000X1.600000*%
%ADD29C,1.600000*%
%ADD30RoundRect,0.062500X-0.325000X-0.062500X0.325000X-0.062500X0.325000X0.062500X-0.325000X0.062500X0*%
%ADD31R,0.600000X1.200000*%
%ADD32RoundRect,0.249999X-1.550001X0.790001X-1.550001X-0.790001X1.550001X-0.790001X1.550001X0.790001X0*%
%ADD33O,3.600000X2.080000*%
%ADD34R,2.030000X1.730000*%
%ADD35O,2.030000X1.730000*%
%ADD36C,1.100000*%
%ADD37R,0.600000X0.400000*%
%ADD38Outline4P,-0.650000X-0.150000X0.650000X-0.150000X0.350000X0.150000X-0.350000X0.150000X0.000000*%
%ADD39R,1.300000X2.200000*%
%ADD40R,1.000000X0.300000*%
G04 APERTURE END LIST*
D10*
%TO.C,H2*%
X131125000Y-109600000D03*
D11*
X131125000Y-109600000D03*
%TD*%
D12*
%TO.C,C17*%
X159550000Y-93225000D03*
X159550000Y-91675000D03*
%TD*%
D13*
%TO.C,C4*%
X139625000Y-66275000D03*
X139625000Y-67825000D03*
%TD*%
D14*
%TO.C,D1*%
X141071600Y-99536000D03*
X141071600Y-95536000D03*
%TD*%
D10*
%TO.C,H1*%
X131125000Y-68850000D03*
D11*
X131125000Y-68850000D03*
%TD*%
D15*
%TO.C,U6*%
X152030000Y-96375000D03*
X150760000Y-96375000D03*
X149490000Y-96375000D03*
X148220000Y-96375000D03*
X148220000Y-101325000D03*
X149490000Y-101325000D03*
X150760000Y-101325000D03*
X152030000Y-101325000D03*
%TD*%
D16*
%TO.C,Q2*%
X138925000Y-85500000D03*
X137025000Y-85500000D03*
X137975000Y-87375000D03*
%TD*%
D12*
%TO.C,C18*%
X154775000Y-101325000D03*
X154775000Y-99775000D03*
%TD*%
D17*
%TO.C,SW1*%
X147225000Y-88750000D03*
X147225000Y-81000000D03*
%TD*%
D18*
%TO.C,R14*%
X139625000Y-74400000D03*
X139625000Y-76050000D03*
%TD*%
D19*
%TO.C,C16*%
X162010000Y-99810000D03*
X160460000Y-99810000D03*
%TD*%
D20*
%TO.C,R12*%
X152025000Y-93100000D03*
X152025000Y-91450000D03*
%TD*%
D17*
%TO.C,SW2*%
X159600000Y-88325000D03*
X159600000Y-80575000D03*
%TD*%
D20*
%TO.C,R2*%
X134475000Y-84900000D03*
X134475000Y-83250000D03*
%TD*%
%TO.C,R1*%
X137125000Y-72175000D03*
X137125000Y-70525000D03*
%TD*%
D21*
%TO.C,Q1*%
X137125000Y-82850000D03*
X139025000Y-82850000D03*
X138075000Y-80975000D03*
%TD*%
D22*
%TO.C,U1*%
X143115000Y-65125000D03*
X143115000Y-66625000D03*
X143115000Y-68125000D03*
X143115000Y-69625000D03*
X143115000Y-71125000D03*
X143115000Y-72625000D03*
X143115000Y-74125000D03*
X143115000Y-75625000D03*
X143115000Y-77125000D03*
X160615000Y-77125000D03*
X160615000Y-75625000D03*
X160615000Y-74125000D03*
X160615000Y-72625000D03*
X160615000Y-71125000D03*
X160615000Y-69625000D03*
X160615000Y-68125000D03*
X160615000Y-66625000D03*
X160615000Y-65125000D03*
D23*
X151725000Y-70775000D03*
X151725000Y-71875000D03*
X152275000Y-70225000D03*
X152275000Y-71325000D03*
X152275000Y-72425000D03*
X152825000Y-70775000D03*
D24*
X152825000Y-71325000D03*
D23*
X152825000Y-71875000D03*
X153375000Y-70225000D03*
X153375000Y-71325000D03*
X153375000Y-72425000D03*
X153925000Y-70775000D03*
X153925000Y-71875000D03*
%TD*%
D25*
%TO.C,J1*%
X130500000Y-87884000D03*
D26*
X130500000Y-85344000D03*
X130500000Y-82804000D03*
X130500000Y-80264000D03*
X130500000Y-77724000D03*
X130500000Y-75184000D03*
%TD*%
D18*
%TO.C,R13*%
X137125000Y-74400000D03*
X137125000Y-76050000D03*
%TD*%
D27*
%TO.C,J5*%
X138895000Y-108690000D03*
X163895000Y-108690000D03*
D28*
X145855000Y-105850000D03*
D29*
X148625000Y-105850000D03*
X151395000Y-105850000D03*
X154165000Y-105850000D03*
X156935000Y-105850000D03*
X147240000Y-108690000D03*
X150010000Y-108690000D03*
X152780000Y-108690000D03*
X155550000Y-108690000D03*
%TD*%
D10*
%TO.C,H3*%
X171875000Y-109600000D03*
D11*
X171875000Y-109600000D03*
%TD*%
D13*
%TO.C,C3*%
X137125000Y-66275000D03*
X137125000Y-67825000D03*
%TD*%
D30*
%TO.C,U4*%
X159912500Y-96600000D03*
X159912500Y-97100000D03*
X159912500Y-97600000D03*
X159912500Y-98100000D03*
X161837500Y-98100000D03*
X161837500Y-97600000D03*
X161837500Y-97100000D03*
X161837500Y-96600000D03*
D31*
X160875000Y-97350000D03*
%TD*%
D32*
%TO.C,J2*%
X136467100Y-93827600D03*
D33*
X136467100Y-98907600D03*
%TD*%
D18*
%TO.C,R3*%
X141075000Y-83150000D03*
X141075000Y-84800000D03*
%TD*%
D10*
%TO.C,H4*%
X171875000Y-68850000D03*
D11*
X171875000Y-68850000D03*
%TD*%
D34*
%TO.C,J3*%
X172875000Y-90465000D03*
D35*
X172875000Y-87925000D03*
X172875000Y-85385000D03*
%TD*%
D13*
%TO.C,C1*%
X139625000Y-70575000D03*
X139625000Y-72125000D03*
%TD*%
D34*
%TO.C,J6*%
X172875000Y-81715000D03*
D35*
X172875000Y-79175000D03*
X172875000Y-76635000D03*
%TD*%
D20*
%TO.C,R11*%
X164210000Y-98060000D03*
X164210000Y-96410000D03*
%TD*%
D36*
%TO.C,J4*%
X170715000Y-96595000D03*
D34*
X172875000Y-101675000D03*
D35*
X172875000Y-99135000D03*
X172875000Y-96595000D03*
X172875000Y-94055000D03*
%TD*%
D37*
%TO.C,U5*%
X154825000Y-90825000D03*
X154825000Y-91425000D03*
X154825000Y-92025000D03*
X154825000Y-92625000D03*
X154825000Y-93225000D03*
X156925000Y-93225000D03*
X156925000Y-92625000D03*
X156925000Y-92025000D03*
X156925000Y-91425000D03*
X156925000Y-90825000D03*
D38*
X155875000Y-90925000D03*
D39*
X155875000Y-92175000D03*
D40*
X156025000Y-90925000D03*
%TD*%
M02*
