%TF.GenerationSoftware,KiCad,Pcbnew,9.0.0*%
%TF.CreationDate,2025-03-19T13:45:40+03:00*%
%TF.ProjectId,End_striyel Sens_r Mod_l_,456e64fc-7374-4726-9979-656c2053656e,rev?*%
%TF.SameCoordinates,Original*%
%TF.FileFunction,Paste,Top*%
%TF.FilePolarity,Positive*%
%FSLAX46Y46*%
G04 Gerber Fmt 4.6, Leading zero omitted, Abs format (unit mm)*
G04 Created by KiCad (PCBNEW 9.0.0) date 2025-03-19 13:45:40*
%MOMM*%
%LPD*%
G01*
G04 APERTURE LIST*
G04 Aperture macros list*
%AMRoundRect*
0 Rectangle with rounded corners*
0 $1 Rounding radius*
0 $2 $3 $4 $5 $6 $7 $8 $9 X,Y pos of 4 corners*
0 Add a 4 corners polygon primitive as box body*
4,1,4,$2,$3,$4,$5,$6,$7,$8,$9,$2,$3,0*
0 Add four circle primitives for the rounded corners*
1,1,$1+$1,$2,$3*
1,1,$1+$1,$4,$5*
1,1,$1+$1,$6,$7*
1,1,$1+$1,$8,$9*
0 Add four rect primitives between the rounded corners*
20,1,$1+$1,$2,$3,$4,$5,0*
20,1,$1+$1,$4,$5,$6,$7,0*
20,1,$1+$1,$6,$7,$8,$9,0*
20,1,$1+$1,$8,$9,$2,$3,0*%
%AMOutline4P*
0 Free polygon, 4 corners , with rotation*
0 The origin of the aperture is its center*
0 number of corners: always 4*
0 $1 to $8 corner X, Y*
0 $9 Rotation angle, in degrees counterclockwise*
0 create outline with 4 corners*
4,1,4,$1,$2,$3,$4,$5,$6,$7,$8,$1,$2,$9*%
G04 Aperture macros list end*
%ADD10RoundRect,0.225000X0.250000X-0.225000X0.250000X0.225000X-0.250000X0.225000X-0.250000X-0.225000X0*%
%ADD11RoundRect,0.225000X-0.250000X0.225000X-0.250000X-0.225000X0.250000X-0.225000X0.250000X0.225000X0*%
%ADD12RoundRect,0.250000X0.650000X-1.000000X0.650000X1.000000X-0.650000X1.000000X-0.650000X-1.000000X0*%
%ADD13RoundRect,0.150000X-0.150000X0.825000X-0.150000X-0.825000X0.150000X-0.825000X0.150000X0.825000X0*%
%ADD14RoundRect,0.150000X-0.150000X0.587500X-0.150000X-0.587500X0.150000X-0.587500X0.150000X0.587500X0*%
%ADD15R,1.000000X1.250000*%
%ADD16RoundRect,0.200000X-0.275000X0.200000X-0.275000X-0.200000X0.275000X-0.200000X0.275000X0.200000X0*%
%ADD17RoundRect,0.225000X0.225000X0.250000X-0.225000X0.250000X-0.225000X-0.250000X0.225000X-0.250000X0*%
%ADD18RoundRect,0.200000X0.275000X-0.200000X0.275000X0.200000X-0.275000X0.200000X-0.275000X-0.200000X0*%
%ADD19RoundRect,0.150000X0.150000X-0.587500X0.150000X0.587500X-0.150000X0.587500X-0.150000X-0.587500X0*%
%ADD20R,0.700000X0.700000*%
%ADD21R,1.500000X0.900000*%
%ADD22RoundRect,0.060000X-0.060000X-0.180000X0.060000X-0.180000X0.060000X0.180000X-0.060000X0.180000X0*%
%ADD23RoundRect,0.062500X-0.325000X-0.062500X0.325000X-0.062500X0.325000X0.062500X-0.325000X0.062500X0*%
%ADD24R,0.600000X0.400000*%
%ADD25Outline4P,-0.650000X-0.150000X0.650000X-0.150000X0.350000X0.150000X-0.350000X0.150000X0.000000*%
%ADD26R,1.300000X2.200000*%
%ADD27R,1.000000X0.300000*%
G04 APERTURE END LIST*
D10*
%TO.C,C17*%
X159550000Y-93225000D03*
X159550000Y-91675000D03*
%TD*%
D11*
%TO.C,C4*%
X139625000Y-66275000D03*
X139625000Y-67825000D03*
%TD*%
D12*
%TO.C,D1*%
X141071600Y-99536000D03*
X141071600Y-95536000D03*
%TD*%
D13*
%TO.C,U6*%
X152030000Y-96375000D03*
X150760000Y-96375000D03*
X149490000Y-96375000D03*
X148220000Y-96375000D03*
X148220000Y-101325000D03*
X149490000Y-101325000D03*
X150760000Y-101325000D03*
X152030000Y-101325000D03*
%TD*%
D14*
%TO.C,Q2*%
X138925000Y-85500000D03*
X137025000Y-85500000D03*
X137975000Y-87375000D03*
%TD*%
D10*
%TO.C,C18*%
X154775000Y-101325000D03*
X154775000Y-99775000D03*
%TD*%
D15*
%TO.C,SW1*%
X147225000Y-88750000D03*
X147225000Y-81000000D03*
%TD*%
D16*
%TO.C,R14*%
X139625000Y-74400000D03*
X139625000Y-76050000D03*
%TD*%
D17*
%TO.C,C16*%
X162010000Y-99810000D03*
X160460000Y-99810000D03*
%TD*%
D18*
%TO.C,R12*%
X152025000Y-93100000D03*
X152025000Y-91450000D03*
%TD*%
D15*
%TO.C,SW2*%
X159600000Y-88325000D03*
X159600000Y-80575000D03*
%TD*%
D18*
%TO.C,R2*%
X134475000Y-84900000D03*
X134475000Y-83250000D03*
%TD*%
%TO.C,R1*%
X137125000Y-72175000D03*
X137125000Y-70525000D03*
%TD*%
D19*
%TO.C,Q1*%
X137125000Y-82850000D03*
X139025000Y-82850000D03*
X138075000Y-80975000D03*
%TD*%
D20*
%TO.C,U1*%
X151725000Y-70225000D03*
X151725000Y-71325000D03*
X151725000Y-72425000D03*
X152825000Y-70225000D03*
X152825000Y-71325000D03*
X152825000Y-72425000D03*
X153925000Y-70225000D03*
X153925000Y-71325000D03*
X153925000Y-72425000D03*
D21*
X143115000Y-65125000D03*
X143115000Y-66625000D03*
X143115000Y-68125000D03*
X143115000Y-69625000D03*
X143115000Y-71125000D03*
X143115000Y-72625000D03*
X143115000Y-74125000D03*
X143115000Y-75625000D03*
X143115000Y-77125000D03*
X160615000Y-77125000D03*
X160615000Y-75625000D03*
X160615000Y-74125000D03*
X160615000Y-72625000D03*
X160615000Y-71125000D03*
X160615000Y-69625000D03*
X160615000Y-68125000D03*
X160615000Y-66625000D03*
X160615000Y-65125000D03*
%TD*%
D16*
%TO.C,R13*%
X137125000Y-74400000D03*
X137125000Y-76050000D03*
%TD*%
D11*
%TO.C,C3*%
X137125000Y-66275000D03*
X137125000Y-67825000D03*
%TD*%
D22*
%TO.C,U4*%
X160725000Y-97050000D03*
X160725000Y-97650000D03*
X161025000Y-97050000D03*
X161025000Y-97650000D03*
D23*
X159912500Y-96600000D03*
X159912500Y-97100000D03*
X159912500Y-97600000D03*
X159912500Y-98100000D03*
X161837500Y-98100000D03*
X161837500Y-97600000D03*
X161837500Y-97100000D03*
X161837500Y-96600000D03*
%TD*%
D16*
%TO.C,R3*%
X141075000Y-83150000D03*
X141075000Y-84800000D03*
%TD*%
D11*
%TO.C,C1*%
X139625000Y-70575000D03*
X139625000Y-72125000D03*
%TD*%
D18*
%TO.C,R11*%
X164210000Y-98060000D03*
X164210000Y-96410000D03*
%TD*%
D24*
%TO.C,U5*%
X154825000Y-90825000D03*
X154825000Y-91425000D03*
X154825000Y-92025000D03*
X154825000Y-92625000D03*
X154825000Y-93225000D03*
X156925000Y-93225000D03*
X156925000Y-92625000D03*
X156925000Y-92025000D03*
X156925000Y-91425000D03*
X156925000Y-90825000D03*
D25*
X155875000Y-90925000D03*
D26*
X155875000Y-92175000D03*
D27*
X156025000Y-90925000D03*
%TD*%
M02*
