M48
; DRILL file {KiCad 9.0.0} date 2025-03-19T13:45:42+0300
; FORMAT={-:-/ absolute / metric / decimal}
; #@! TF.CreationDate,2025-03-19T13:45:42+03:00
; #@! TF.GenerationSoftware,Kicad,Pcbnew,9.0.0
; #@! TF.FileFunction,Plated,1,4,PTH
FMAT,2
METRIC
; #@! TA.AperFunction,Plated,PTH,ComponentDrill
T1C0.200
; #@! TA.AperFunction,Plated,PTH,ViaDrill
T2C0.300
; #@! TA.AperFunction,Plated,PTH,ViaDrill
T3C0.500
; #@! TA.AperFunction,Plated,PTH,ComponentDrill
T4C1.000
; #@! TA.AperFunction,Plated,PTH,ComponentDrill
T5C1.020
; #@! TA.AperFunction,Plated,PTH,ComponentDrill
T6C1.400
; #@! TA.AperFunction,Plated,PTH,ComponentDrill
T7C3.200
%
G90
G05
T1
X151.725Y-70.775
X151.725Y-71.875
X152.275Y-70.225
X152.275Y-71.325
X152.275Y-72.425
X152.825Y-70.775
X152.825Y-71.875
X153.375Y-70.225
X153.375Y-71.325
X153.375Y-72.425
X153.925Y-70.775
X153.925Y-71.875
T2
X133.3Y-77.1
X134.128Y-89.662
X134.128Y-90.662
X134.325Y-77.475
X135.128Y-89.662
X135.128Y-90.662
X136.103Y-89.662
X136.103Y-90.662
X137.176Y-89.662
X137.176Y-90.662
X138.176Y-89.662
X138.176Y-90.662
X139.151Y-89.662
X139.151Y-90.662
X139.75Y-79.45
X140.224Y-89.662
X140.224Y-90.662
X141.025Y-77.6
X141.075Y-81.825
X141.224Y-89.662
X141.224Y-90.662
X142.199Y-89.662
X142.199Y-90.662
X142.647Y-87.325
X143.507Y-89.157
X144.325Y-86.75
X145.304Y-65.532
X145.304Y-66.532
X145.625Y-75.225
X146.05Y-84.623
X146.05Y-85.598
X146.05Y-86.598
X146.304Y-65.532
X146.304Y-66.532
X146.75Y-75.2
X147.05Y-84.623
X147.05Y-85.598
X147.05Y-86.598
X147.279Y-65.532
X147.279Y-66.532
X147.675Y-75.1
X148.352Y-65.532
X148.352Y-66.532
X148.352Y-70.612
X148.352Y-71.612
X148.875Y-76.475
X149.352Y-65.532
X149.352Y-66.532
X149.352Y-70.612
X149.352Y-71.612
X150.327Y-65.532
X150.327Y-66.532
X150.327Y-70.612
X150.327Y-71.612
X150.588Y-75.837
X150.775Y-79.325
X150.775Y-81.9
X151.4Y-65.525
X151.4Y-66.525
X151.45Y-68.35
X152.225Y-67.525
X152.4Y-65.525
X152.4Y-66.525
X152.75Y-83.075
X152.775Y-84.325
X152.8Y-82.05
X153.375Y-65.525
X153.375Y-66.525
X153.375Y-87.25
X153.45Y-92.075
X154.625Y-79.5
X155.95Y-70.525
X156.675Y-94.8
X156.7Y-69.8
X156.725Y-75.075
X156.75Y-77.025
X156.925Y-89.025
X156.95Y-96.4
X156.95Y-98.6
X157.226Y-100.371
X157.226Y-101.346
X157.226Y-102.346
X157.45Y-80.525
X157.745Y-89.55
X158.226Y-100.371
X158.226Y-101.346
X158.226Y-102.346
X158.4Y-78.975
X158.5Y-75.475
X158.525Y-98.475
X158.7Y-65.675
X158.8Y-67.3
X161.925Y-91.125
X163.068Y-78.875
X163.068Y-92.964
X163.925Y-78.875
X164.395Y-86.991
X164.395Y-87.991
X164.395Y-88.916
X164.395Y-89.916
X165.395Y-86.991
X165.395Y-87.991
X165.395Y-88.916
X165.395Y-89.916
X166.37Y-86.991
X166.37Y-87.991
X166.37Y-88.916
X166.37Y-89.916
X166.37Y-95.25
T3
X135.65Y-66.275
X135.75Y-74.375
X139.141Y-92.507
X139.141Y-93.828
X139.192Y-95.758
X140.767Y-92.507
X140.767Y-93.828
X142.392Y-92.507
X144.175Y-99.95
X145.375Y-99.95
X146.65Y-99.975
X146.875Y-70.05
X164.592Y-92.964
T4
X130.5Y-75.184
X130.5Y-77.724
X130.5Y-80.264
X130.5Y-82.804
X130.5Y-85.344
X130.5Y-87.884
X145.855Y-105.85
X147.24Y-108.69
X148.625Y-105.85
X150.01Y-108.69
X151.395Y-105.85
X152.78Y-108.69
X154.165Y-105.85
X155.55Y-108.69
X156.935Y-105.85
T5
X172.875Y-76.635
X172.875Y-79.175
X172.875Y-81.715
X172.875Y-85.385
X172.875Y-87.925
X172.875Y-90.465
X172.875Y-94.055
X172.875Y-96.595
X172.875Y-99.135
X172.875Y-101.675
T6
X136.467Y-93.828
X136.467Y-98.908
T7
X131.125Y-68.85
X131.125Y-109.6
X138.895Y-108.69
X163.895Y-108.69
X171.875Y-68.85
X171.875Y-109.6
M30
